<svg width="32" height="32" viewBox="0 0 32 32" fill="none" xmlns="http://www.w3.org/2000/svg">
<path d="M11 4C7.145 4 4 7.145 4 11C4 12.031 4.316 12.988 4.719 13.875C4.58039 14.575 4.50707 15.2864 4.5 16C4.5 22.34 9.66 27.5 16 27.5C16.73 27.5 17.434 27.41 18.125 27.281C19.012 27.684 19.969 28 21 28C24.855 28 28 24.855 28 21C28 19.969 27.684 19.012 27.281 18.125C27.411 17.434 27.5 16.73 27.5 16C27.5 9.66 22.34 4.5 16 4.5C15.27 4.5 14.566 4.59 13.875 4.719C12.988 4.316 12.031 4 11 4ZM11 6C11.863 6 12.668 6.21 13.375 6.594C13.5859 6.70617 13.8299 6.73916 14.063 6.687C14.7007 6.55913 15.3497 6.49647 16 6.5C21.258 6.5 25.5 10.742 25.5 16C25.5 16.668 25.441 17.309 25.312 17.938C25.2604 18.1709 25.2937 18.4145 25.406 18.625C25.789 19.332 26 20.137 26 21C26 23.773 23.773 26 21 26C20.137 26 19.332 25.79 18.625 25.406C18.4141 25.2938 18.1701 25.2608 17.937 25.313C17.2993 25.4409 16.6503 25.5035 16 25.5C14.7519 25.5018 13.5158 25.2574 12.3623 24.7806C11.2089 24.3038 10.1609 23.6041 9.27837 22.7216C8.39585 21.8391 7.69616 20.7911 7.21939 19.6377C6.74262 18.4842 6.49816 17.2481 6.5 16C6.5 15.332 6.559 14.691 6.688 14.062C6.73961 13.8291 6.70627 13.5855 6.594 13.375C6.20051 12.6455 5.99627 11.8289 6 11C6 8.227 8.227 6 11 6ZM15.844 9.156C13.371 9.156 10.719 10.203 10.719 13C10.719 14.348 11.195 15.773 13.844 16.438L17.156 17.25C18.152 17.496 18.406 18.059 18.406 18.563C18.406 19.403 17.574 20.219 16.063 20.219C13.109 20.219 13.488 17.969 11.906 17.969C11.196 17.969 10.687 18.457 10.687 19.156C10.687 20.52 12.363 22.313 16.063 22.313C19.582 22.313 21.313 20.613 21.313 18.343C21.313 16.875 20.637 15.343 17.969 14.75L15.531 14.187C14.605 13.977 13.531 13.715 13.531 12.844C13.531 11.969 14.273 11.344 15.625 11.344C18.348 11.344 18.117 13.219 19.469 13.219C20.179 13.219 20.781 12.813 20.781 12.094C20.781 10.414 18.121 9.156 15.844 9.156Z" fill="#586368"/>
</svg>
