<svg width="56" height="84" viewBox="0 0 56 84" fill="none" xmlns="http://www.w3.org/2000/svg">
<g clip-path="url(#clip0_11_3607)">
<path d="M27.9531 42.016C27.9531 34.3058 34.2038 28.0234 41.9456 28.0234C49.6558 28.0234 55.9382 34.2741 55.9382 42.016C55.9382 49.7261 49.6875 56.0085 41.9456 56.0085C34.2355 56.0085 27.9531 49.7261 27.9531 42.016Z" fill="#1ABCFE"/>
<path d="M0 69.9691C0 62.2589 6.25063 55.9766 13.9925 55.9766H27.985V69.9691C27.985 77.6793 21.7344 83.9616 13.9925 83.9616C6.25063 83.9616 0 77.711 0 69.9691Z" fill="#0ACF83"/>
<path d="M27.9531 0.0700592V28.0234H41.9456C49.6558 28.0234 55.9382 21.7728 55.9382 14.0309C55.9382 6.32069 49.6875 0.0383301 41.9456 0.0383301H27.9531V0.0700592Z" fill="#FF7262"/>
<path d="M0 14.0626C0 21.7728 6.25063 28.0551 13.9925 28.0551H27.985V0.0700684H13.9925C6.25063 0.0700684 0 6.3207 0 14.0626Z" fill="#F24E1E"/>
<path d="M0 42.016C0 49.7261 6.25063 56.0085 13.9925 56.0085H27.985V28.0234H13.9925C6.25063 28.0234 0 34.3058 0 42.016Z" fill="#A259FF"/>
</g>
<defs>
<clipPath id="clip0_11_3607">
<rect width="55.9594" height="84" fill="white"/>
</clipPath>
</defs>
</svg>
