<svg width="84" height="84" viewBox="0 0 84 84" fill="none" xmlns="http://www.w3.org/2000/svg">
<g clip-path="url(#clip0_11_3612)">
<path d="M82.4158 38.2573L45.7406 1.58411C43.6298 -0.528035 40.2042 -0.528035 38.0907 1.58411L30.4749 9.19989L40.1359 18.8609C42.381 18.1022 44.9554 18.6112 46.745 20.4008C48.5431 22.2018 49.0485 24.7983 48.2715 27.0505L57.582 36.3614C59.8346 35.5854 62.4337 36.0874 64.2328 37.8895C66.7472 40.4029 66.7472 44.4766 64.2328 46.9917C61.7177 49.5071 57.644 49.5071 55.1276 46.9917C53.2363 45.0984 52.7691 42.3208 53.7265 39.9908L45.0437 31.308L45.0427 54.1576C45.6721 54.4688 46.247 54.8799 46.745 55.375C49.2594 57.8884 49.2594 61.9624 46.745 64.4794C44.2299 66.9935 40.1543 66.9935 37.6428 64.4794C35.1284 61.9624 35.1284 57.8887 37.6428 55.3753C38.2454 54.7724 38.9615 54.295 39.7497 53.9706V30.908C38.9603 30.5857 38.2438 30.108 37.6428 29.5033C35.7377 27.6008 35.2797 24.8055 36.2558 22.4663L26.7323 12.9418L1.58484 38.0877C-0.528281 40.2018 -0.528281 43.6278 1.58484 45.7402L38.2607 82.4141C40.3722 84.5266 43.7971 84.5266 45.9112 82.4141L82.4155 45.9105C84.5279 43.7974 84.5283 40.3695 82.4158 38.2573Z" fill="#DE4C36"/>
</g>
<defs>
<clipPath id="clip0_11_3612">
<rect width="83.9998" height="83.9984" fill="white"/>
</clipPath>
</defs>
</svg>
