<svg width="94" height="94" viewBox="0 0 94 94" fill="none" xmlns="http://www.w3.org/2000/svg">
<path d="M88.125 47C88.125 69.701 69.7216 88.125 47 88.125C24.2784 88.125 5.875 69.701 5.875 47C5.875 24.2784 24.2784 5.875 47 5.875C69.7216 5.875 88.125 24.2784 88.125 47Z" fill="white"/>
<path d="M33.2137 64.3606C32.8456 63.8119 32.5234 63.0719 32.2623 62.1866C27.5426 56.8641 31.1886 49.0316 34.795 43.7129C35.1407 43.1442 35.5173 42.5949 35.9268 42.0694C38.6781 38.6507 39.3901 36.2717 39.6019 33.053C39.6269 32.4538 39.5772 31.6607 39.5202 30.7492C39.2294 26.0959 38.7456 18.3645 47.0482 17.679C57.4261 16.8221 56.5809 26.3524 56.5043 31.94C56.501 32.1712 56.4978 32.3962 56.4955 32.6133C56.4676 35.9814 58.2253 38.2877 60.0601 40.6946C60.7302 41.5738 61.4105 42.4663 62.018 43.4289C62.0359 43.4574 62.0538 43.4862 62.0717 43.5146C65.278 48.1389 68.4431 55.0399 64.0375 61.5856C63.4183 63.8198 62.4806 65.8705 61.2289 67.5393C56.7352 73.4528 52.7407 72.8523 49.6217 72.3835C48.6808 72.2422 47.8195 72.1127 47.0482 72.1776C45.7668 72.2557 44.7399 72.4628 43.8528 72.642C40.4238 73.3341 39.0837 73.6046 33.2137 64.3606Z" fill="black"/>
<path d="M52.9175 22.8969C52.8212 25.6359 49.9157 28.0149 46.4333 28.2348C42.9506 28.4547 40.2181 26.3756 40.3145 23.6366C40.4105 20.8977 43.316 18.5187 46.7987 18.2987C50.2814 18.0988 53.0136 20.158 52.9175 22.8969Z" fill="url(#paint0_linear_949_37414)"/>
<path fill-rule="evenodd" clip-rule="evenodd" d="M46.6054 29.5545C46.6333 31.0438 47.3154 32.3137 48.2733 32.8871C45.1481 32.6071 41.2756 33.7498 41.2756 35.9118C41.2274 39.5696 39.1917 44.1204 37.7262 47.396C37.4377 48.0414 37.1713 48.6371 36.9463 49.1667C36.0392 51.413 35.4949 53.8153 35.4305 56.1718C33.028 52.86 34.7737 48.6115 35.7149 46.7677C36.9674 44.341 36.9433 44.0384 36.4569 44.6071C34.5919 47.7784 31.0798 54.1481 35.4778 57.9748C35.6174 59.6835 36.0336 61.3394 36.7733 62.8613C42.6609 74.7368 53.6862 69.8585 57.3228 63.7009C57.8066 62.8255 58.1979 61.9786 58.5084 61.1602C58.6905 61.2748 58.8856 61.3635 59.093 61.422C60.921 61.9616 63.6531 59.9024 64.3073 58.6231C65.0963 56.9238 64.2882 55.764 61.5945 54.3846C61.4571 54.3167 61.3214 54.2527 61.1874 54.1931C62.2205 49.8429 59.3735 45.3192 57.3402 43.3998C56.9609 43.3064 56.9075 43.5214 57.4961 44.1086C58.7766 45.3359 61.5619 49.7113 60.055 53.7836C59.8068 53.7169 59.568 53.6699 59.3403 53.644C58.8774 50.8658 57.643 48.7043 56.7803 47.1939C56.5849 46.8517 56.4087 46.5429 56.2645 46.268C55.9742 45.7131 55.627 45.1385 55.2587 44.5293C53.8395 42.1813 52.1085 39.3167 52.1085 35.0723C51.8914 34.1385 51.0101 33.5157 49.8372 33.1717C51.1987 32.8971 52.2207 31.3064 52.1854 29.3944C52.147 27.3353 50.8577 25.696 49.3184 25.7359C47.7792 25.7759 46.5478 27.4952 46.6054 29.5545ZM47.8752 30.0142C47.8562 31.154 48.3949 32.0734 49.1069 32.0734C49.7996 32.0734 50.3959 31.154 50.4153 30.0342C50.4344 28.8947 49.8957 27.9751 49.1839 27.9751C48.4719 27.9751 47.8946 28.8947 47.8752 30.0142Z" fill="url(#paint1_linear_949_37414)"/>
<path fill-rule="evenodd" clip-rule="evenodd" d="M42.7569 32.7531C43.8728 32.6932 44.681 31.1939 44.5849 29.4143C44.4885 27.6352 43.5074 26.2557 42.3912 26.3157C41.2752 26.3757 40.4671 27.8751 40.5635 29.6543C40.6595 31.4336 41.6409 32.813 42.7569 32.7531ZM43.4302 30.0342C43.5265 30.9739 43.1802 31.7735 42.6799 31.8536C42.1797 31.9136 41.6985 31.2139 41.6024 30.2742C41.5061 29.3345 41.8524 28.5348 42.3527 28.4548C42.8529 28.3949 43.3341 29.0946 43.4302 30.0342Z" fill="url(#paint2_linear_949_37414)"/>
<path d="M48.1636 29.3744C48.1058 30.0142 48.3945 30.5338 48.7984 30.5741C49.2026 30.614 49.5874 30.1141 49.645 29.4943C49.7029 28.8546 49.4141 28.3349 49.0102 28.2948C48.606 28.2549 48.2212 28.7547 48.1636 29.3744Z" fill="url(#paint3_linear_949_37414)"/>
<path d="M43.008 29.5342C43.0656 30.0541 42.8541 30.5139 42.5463 30.5538C42.2384 30.5938 41.9497 30.194 41.8918 29.6544C41.8342 29.1344 42.0457 28.6746 42.3539 28.6347C42.6617 28.5947 42.9502 29.0145 43.008 29.5342Z" fill="url(#paint4_linear_949_37414)"/>
<path d="M54.8404 50.386C54.8404 53.9049 51.5886 58.463 46.0088 58.423C40.2554 58.463 37.812 53.9049 37.812 50.386C37.812 46.8675 41.6217 44.0087 46.3167 44.0087C51.0308 44.0287 54.8404 46.8675 54.8404 50.386Z" fill="url(#paint5_linear_949_37414)"/>
<path d="M51.8002 39.3305C51.7426 42.9692 49.4528 43.8287 46.5668 43.8287C43.6804 43.8287 41.5833 43.2891 41.333 39.3305C41.333 36.8515 43.6804 35.4122 46.5668 35.4122C49.4528 35.3922 51.8002 36.8316 51.8002 39.3305Z" fill="url(#paint6_linear_949_37414)"/>
<path d="M34.3483 44.9282C36.2341 41.9495 40.2171 37.3712 35.0988 45.568C30.9428 52.3254 33.5595 56.6638 34.9064 57.8632C38.793 61.4619 38.6391 63.8809 35.58 61.9815C29.0186 57.9231 30.3847 51.0858 34.3483 44.9282Z" fill="url(#paint7_linear_949_37414)"/>
<path d="M61.6523 46.1478C60.017 42.6493 54.8217 33.7727 61.9026 44.0886C68.3483 53.4249 63.8266 59.9223 63.0185 60.5621C62.2104 61.2019 59.4974 62.5015 60.2864 60.2422C61.0945 57.9833 65.0965 53.7048 61.6523 46.1478Z" fill="url(#paint8_linear_949_37414)"/>
<path d="M32.9248 73.7368C28.6148 71.3581 22.3614 74.1969 24.6319 67.7593C25.0937 66.3 23.9584 64.1007 24.6896 62.6813C25.5554 60.942 27.4218 61.3218 28.5378 60.1624C29.6345 58.9627 30.3272 56.8835 32.3861 57.2034C34.4256 57.5233 35.7918 60.1224 37.2156 63.3211C38.274 65.6003 42.0067 68.8189 41.7567 71.378C41.4489 75.2964 37.1581 76.036 32.9248 73.7368Z" fill="url(#paint9_linear_949_37414)"/>
<path fill-rule="evenodd" clip-rule="evenodd" d="M29.0126 60.6309C27.9645 61.7771 26.0395 61.5024 25.267 63.0023C24.7708 63.9655 25.3129 65.446 25.3861 66.5009C25.4764 67.804 24.396 69.6508 24.9462 70.7638C25.5641 72.0137 28.3556 71.8516 29.5827 72.0307C32.6118 72.4734 37.6185 76.3938 40.3577 73.2651C43.0355 70.2063 37.8885 66.3358 36.6259 63.6166C35.8049 61.7721 34.5761 58.2354 32.289 57.8764C30.6766 57.6261 29.9422 59.6142 29.0126 60.6309ZM32.4838 56.5307C35.3317 56.9772 36.7566 60.6694 37.8077 63.0302C39.403 66.4539 44.8694 70.1337 41.3265 74.1807C38.1088 77.8561 33.0287 73.9084 29.4003 73.3782C27.588 73.1135 24.7296 73.3036 23.7813 71.3854C22.966 69.736 24.1938 68.2422 24.0799 66.5987C23.9827 65.1981 23.4285 63.6941 24.1101 62.3646C25.0433 60.4958 26.8448 60.9484 28.0692 59.6871C29.3694 58.2586 30.1487 56.1679 32.4838 56.5307Z" fill="#E68C3F"/>
<path d="M62.8065 72.6373C65.962 68.6591 72.9853 69.4787 68.2518 64.0208C67.2513 62.8414 67.5591 60.3222 66.3277 59.2426C64.8845 57.9231 63.2877 59.0029 61.8251 58.3232C60.3628 57.5832 58.8236 56.1638 57.034 57.1635C55.2448 58.1831 55.0524 60.8221 54.8791 64.3007C54.7252 66.7997 52.5317 70.9782 53.7053 73.2771C55.3987 76.8359 59.805 76.3559 62.8065 72.6373Z" fill="url(#paint10_linear_949_37414)"/>
<path fill-rule="evenodd" clip-rule="evenodd" d="M64.0675 57.8629C64.8764 57.8414 65.8455 57.8981 66.7556 58.7274C67.8874 59.7252 67.8985 61.3541 68.3254 62.718C68.8306 64.3333 70.6016 65.256 70.4956 67.1498C70.3226 70.2459 64.9607 70.9914 63.3105 73.0724C61.7245 75.037 59.72 76.207 57.8176 76.3644C54.9327 76.6035 52.5495 74.1777 52.7184 71.2159C52.8553 68.8183 54.0767 66.6398 54.2257 64.2613C54.3114 62.5388 54.404 60.942 54.7153 59.6453C55.0299 58.3349 55.5969 57.2066 56.7196 56.5668C59.1783 55.1933 61.5535 57.9287 64.0675 57.8629ZM57.3468 57.7615C56.6814 58.1416 56.2581 58.8422 55.9861 59.9746C55.7109 61.1209 55.6201 62.5896 55.5328 64.3442C55.386 66.7282 54.1622 68.9049 54.0259 71.2963C53.9043 73.429 55.5422 75.1879 57.7133 75.0079C59.1874 74.8857 60.8876 73.9551 62.3032 72.2023C63.5681 70.609 69.073 69.1296 69.1881 67.0708C69.2633 65.7266 67.4949 64.4655 67.0796 63.1389C66.7547 62.1005 66.7376 60.4919 65.9057 59.7628C65.3741 59.2767 64.8148 59.2044 64.1004 59.2232C62.0303 59.2776 59.2685 56.6908 57.3468 57.7615Z" fill="#E68C3F"/>
<path d="M61.441 67.3196C66.3281 59.8225 62.6915 59.8824 61.4601 59.3025C60.2287 58.7027 58.9394 57.5233 57.4965 58.3428C56.0533 59.1827 55.9764 61.3417 55.9379 64.1805C55.8803 66.2198 54.2447 69.6384 55.2258 71.5378C56.419 73.7568 59.3051 70.5382 61.441 67.3196Z" fill="url(#paint11_linear_949_37414)"/>
<path d="M31.9237 68.3991C24.612 63.4811 28.0369 61.8018 29.1337 61.0222C30.4614 60.0225 30.4805 58.1032 32.1161 58.2832C33.7517 58.463 34.7137 60.5621 35.8103 63.1612C36.6184 65.0204 39.4278 67.4993 39.216 69.6387C38.9467 72.1576 35.0792 70.4982 31.9237 68.3991Z" fill="url(#paint12_linear_949_37414)"/>
<path d="M63.8835 58.5629C63.3063 59.6024 60.9589 61.2419 59.4003 60.8021C57.8034 60.3824 57.0723 58.0432 57.3992 56.284C57.688 54.2847 59.4003 54.1848 61.5555 55.1844C63.845 56.264 64.5571 57.1834 63.8835 58.5629Z" fill="black"/>
<path d="M62.3066 57.983C61.9409 58.7027 60.4016 59.8424 59.3242 59.5425C58.2467 59.2426 57.708 57.6232 57.881 56.4038C58.0349 55.0244 59.1893 54.9442 60.6519 55.6239C62.2297 56.3838 62.7299 57.0233 62.3066 57.983Z" fill="url(#paint13_linear_949_37414)"/>
<path d="M42.4111 31.8936C43.1807 31.154 45.0472 28.8947 48.5875 31.2538C49.2417 31.6936 49.7804 31.7335 51.0312 32.2934C53.5516 33.3729 52.3587 35.972 49.665 36.8515C48.5105 37.2313 47.4715 38.691 45.3936 38.5509C43.604 38.451 43.1423 37.2313 42.0454 36.5716C40.1019 35.4321 39.8135 33.8929 40.8719 33.073C41.93 32.2535 42.3342 31.9535 42.4111 31.8936Z" fill="url(#paint14_linear_949_37414)"/>
<path fill-rule="evenodd" clip-rule="evenodd" d="M41.1068 33.4003C40.7044 33.7119 40.5763 34.1264 40.7094 34.5847C40.9826 35.5256 42.9525 36.8204 43.7068 37.4537C44.1357 37.8139 44.6263 38.0994 45.4191 38.1434C47.117 38.258 48.0599 36.9517 49.5475 36.462C50.5256 36.1427 52.5957 34.9216 51.9098 33.5225C51.3249 32.3287 49.3539 32.2549 48.3748 31.5969C46.6896 30.4742 45.4632 30.4824 44.5892 30.7973C43.6316 31.1425 41.974 32.7285 41.1068 33.4003ZM44.3316 30.026C45.4684 29.6162 46.9463 29.6752 48.801 30.911C50.0201 31.7306 51.8748 31.6516 52.6101 33.152C53.5469 35.0638 51.2771 36.7528 49.7833 37.2408C48.1839 37.7674 47.2903 39.087 45.3703 38.9583C44.3748 38.9022 43.7359 38.528 43.213 38.0888C42.1276 37.1776 40.2937 36.3116 39.8746 34.8667C39.6419 34.0653 39.9812 33.254 40.6371 32.7458C41.6973 31.9245 43.1299 30.4592 44.3316 30.026Z" fill="#E68C3F"/>
<path fill-rule="evenodd" clip-rule="evenodd" d="M51.3312 33.9778C51.3392 34.1279 51.2284 34.2562 51.0842 34.2645C49.0476 34.3799 47.6165 36.7038 45.3167 36.7038C44.0298 36.7038 43.011 36.0828 42.2825 35.4859C42.136 35.3654 40.8408 34.367 40.8408 34.1126C40.8408 33.9622 40.958 33.8403 41.1028 33.8403C41.3734 33.8403 42.1897 34.7262 42.4935 34.9753C43.1797 35.5379 44.1984 36.1594 45.3167 36.1594C47.5935 36.1594 48.9903 33.8379 51.0554 33.7207C51.1999 33.7128 51.3233 33.8277 51.3312 33.9778Z" fill="#E68C3F"/>
<path d="M43.6032 31.6936C43.988 31.3337 45.2 30.3541 46.7971 31.3537C47.1434 31.5535 47.4898 31.7735 47.99 32.0734C49.0099 32.6932 48.5097 33.5927 47.2783 34.1526C46.7201 34.3926 45.7966 34.9122 45.1039 34.8722C44.3343 34.7923 43.8147 34.2724 43.3144 33.9325C42.3718 33.293 42.4293 32.7531 42.872 32.3334C43.199 32.0135 43.5647 31.7136 43.6032 31.6936Z" fill="url(#paint15_linear_949_37414)"/>
<defs>
<linearGradient id="paint0_linear_949_37414" x1="47.1715" y1="18.5249" x2="46.5211" y2="27.3369" gradientUnits="userSpaceOnUse">
<stop stop-color="white" stop-opacity="0.8"/>
<stop offset="1" stop-color="white" stop-opacity="0"/>
</linearGradient>
<linearGradient id="paint1_linear_949_37414" x1="37.8839" y1="66.5999" x2="33.0488" y2="50.7356" gradientUnits="userSpaceOnUse">
<stop stop-color="#FFEED7"/>
<stop offset="1" stop-color="#BDBFC2"/>
</linearGradient>
<linearGradient id="paint2_linear_949_37414" x1="37.8836" y1="66.5999" x2="33.0484" y2="50.7356" gradientUnits="userSpaceOnUse">
<stop stop-color="#FFEED7"/>
<stop offset="1" stop-color="#BDBFC2"/>
</linearGradient>
<linearGradient id="paint3_linear_949_37414" x1="48.9626" y1="28.3634" x2="48.6886" y2="30.416" gradientUnits="userSpaceOnUse">
<stop stop-color="white" stop-opacity="0.65"/>
<stop offset="1" stop-color="white" stop-opacity="0"/>
</linearGradient>
<linearGradient id="paint4_linear_949_37414" x1="42.4" y1="28.7374" x2="42.6949" y2="30.3981" gradientUnits="userSpaceOnUse">
<stop stop-color="white" stop-opacity="0.65"/>
<stop offset="1" stop-color="white" stop-opacity="0"/>
</linearGradient>
<linearGradient id="paint5_linear_949_37414" x1="46.299" y1="45.9155" x2="46.3481" y2="57.6555" gradientUnits="userSpaceOnUse">
<stop stop-color="white" stop-opacity="0.8"/>
<stop offset="1" stop-color="white" stop-opacity="0"/>
</linearGradient>
<linearGradient id="paint6_linear_949_37414" x1="46.5591" y1="38.5538" x2="46.6132" y2="43.2218" gradientUnits="userSpaceOnUse">
<stop stop-color="white" stop-opacity="0.65"/>
<stop offset="1" stop-color="white" stop-opacity="0"/>
</linearGradient>
<linearGradient id="paint7_linear_949_37414" x1="34.4258" y1="41.4349" x2="34.4258" y2="58.5655" gradientUnits="userSpaceOnUse">
<stop stop-color="white" stop-opacity="0.65"/>
<stop offset="1" stop-color="white" stop-opacity="0"/>
</linearGradient>
<linearGradient id="paint8_linear_949_37414" x1="61.7842" y1="39.7617" x2="61.7777" y2="55.24" gradientUnits="userSpaceOnUse">
<stop stop-color="white" stop-opacity="0.65"/>
<stop offset="1" stop-color="white" stop-opacity="0"/>
</linearGradient>
<linearGradient id="paint9_linear_949_37414" x1="33.5702" y1="65.9096" x2="30.9464" y2="74.6751" gradientUnits="userSpaceOnUse">
<stop stop-color="#FFA63F"/>
<stop offset="1" stop-color="#FFFF00"/>
</linearGradient>
<linearGradient id="paint10_linear_949_37414" x1="58.402" y1="63.2438" x2="65.4039" y2="72.791" gradientUnits="userSpaceOnUse">
<stop stop-color="#FFA63F"/>
<stop offset="1" stop-color="#FFFF00"/>
</linearGradient>
<linearGradient id="paint11_linear_949_37414" x1="60.2783" y1="55.6163" x2="57.8299" y2="67.1524" gradientUnits="userSpaceOnUse">
<stop stop-color="white" stop-opacity="0.65"/>
<stop offset="1" stop-color="white" stop-opacity="0"/>
</linearGradient>
<linearGradient id="paint12_linear_949_37414" x1="33.0347" y1="58.4692" x2="33.5202" y2="71.452" gradientUnits="userSpaceOnUse">
<stop stop-color="white" stop-opacity="0.65"/>
<stop offset="1" stop-color="white" stop-opacity="0"/>
</linearGradient>
<linearGradient id="paint13_linear_949_37414" x1="59.8529" y1="55.4062" x2="60.4207" y2="59.2855" gradientUnits="userSpaceOnUse">
<stop stop-color="white" stop-opacity="0.65"/>
<stop offset="1" stop-color="white" stop-opacity="0"/>
</linearGradient>
<linearGradient id="paint14_linear_949_37414" x1="46.3092" y1="31.6774" x2="46.3565" y2="38.5095" gradientUnits="userSpaceOnUse">
<stop stop-color="#FFA63F"/>
<stop offset="1" stop-color="#FFFF00"/>
</linearGradient>
<linearGradient id="paint15_linear_949_37414" x1="45.5607" y1="31.0312" x2="45.5478" y2="34.6437" gradientUnits="userSpaceOnUse">
<stop stop-color="white" stop-opacity="0.65"/>
<stop offset="1" stop-color="white" stop-opacity="0"/>
</linearGradient>
</defs>
</svg>
