<svg width="84" height="82" viewBox="0 0 84 82" fill="none" xmlns="http://www.w3.org/2000/svg">
<g clip-path="url(#clip0_386_20998)">
<path d="M69.125 81.8182H14.875C6.65 81.8182 0 75.1748 0 66.958V14.8601C0 6.64336 6.65 0 14.875 0H69.125C77.35 0 84 6.64336 84 14.8601V66.958C84 75.1748 77.35 81.8182 69.125 81.8182Z" fill="#26C9FF"/>
<path d="M67.795 78.3218H16.205C9.205 78.3218 3.5 72.6225 3.5 65.6294V16.1889C3.5 9.19588 9.205 3.49658 16.205 3.49658H67.76C74.795 3.49658 80.465 9.19588 80.465 16.1889V65.5945C80.5 72.6225 74.795 78.3218 67.795 78.3218Z" fill="#061E26"/>
<path fill-rule="evenodd" clip-rule="evenodd" d="M20.6504 20.4896C20.6504 20.2798 20.7204 20.105 21.0004 20.105C23.2054 20.0001 26.3554 19.9302 29.7504 19.9302C39.2004 19.9302 43.3304 25.105 43.3304 31.7484C43.3304 40.4197 36.9604 44.126 29.2604 44.126C27.9654 44.126 27.5104 44.056 26.6004 44.056V57.3428C26.6004 57.6225 26.4954 57.7274 26.2154 57.7274H21.0354C20.7554 57.7274 20.6504 57.6225 20.6504 57.3428V20.4896ZM26.6004 38.6015C27.3704 38.6714 28.0004 38.6714 29.3654 38.6714C33.3554 38.6714 37.1704 37.2728 37.1704 31.8533C37.1704 27.5176 34.4404 25.3148 29.8554 25.3148C28.4904 25.3148 27.1954 25.3847 26.6004 25.4197V38.6015ZM57.1204 34.5456C54.4254 34.5456 53.5154 35.9092 53.5154 37.0281C53.5154 38.2519 54.1454 39.126 57.7504 40.9791C63.1054 43.5665 64.7854 46.0491 64.7854 49.7204C64.7854 55.1749 60.6204 58.112 54.9854 58.112C52.0104 58.112 49.3504 57.4826 47.8804 56.6435C47.6704 56.5386 47.6004 56.3637 47.6004 56.084V51.0491C47.6004 50.6994 47.7754 50.5945 47.9854 50.7693C50.1204 52.1679 52.7454 52.7973 54.9854 52.7973C57.6804 52.7973 58.8004 51.6784 58.8004 50.14C58.8004 48.9162 58.0304 47.8323 54.5654 46.0141C49.7004 43.7064 47.7054 41.3288 47.7054 37.4127C47.7054 33.0071 51.1354 29.3707 57.1204 29.3707C60.0604 29.3707 62.2304 29.8253 63.3504 30.3148C63.6304 30.4896 63.7004 30.7693 63.7004 30.9791V35.6644C63.7004 35.9442 63.5254 36.119 63.2104 36.0141C61.6704 35.105 59.3254 34.5456 57.1204 34.5456Z" fill="#D9F5FF"/>
</g>
<defs>
<clipPath id="clip0_386_20998">
<rect width="84" height="81.8182" fill="white"/>
</clipPath>
</defs>
</svg>
