<svg width="126" height="76" viewBox="0 0 126 76" fill="none" xmlns="http://www.w3.org/2000/svg">
<rect width="126" height="76" fill="#4F595E"/>
<path d="M36 10L60.2487 24V52L36 66L11.7513 52V24L36 10Z" fill="#E6F4FA" stroke="#003247" stroke-width="3"/>
<path d="M27.659 45.179C28.335 45.179 28.9373 45.0663 29.466 44.841C30.0033 44.6157 30.454 44.2993 30.818 43.892C31.182 43.4847 31.4593 42.9907 31.65 42.41C31.8493 41.8293 31.949 41.1793 31.949 40.46V29.202H35.446V40.46C35.446 41.578 35.264 42.6137 34.9 43.567C34.5447 44.5117 34.029 45.3307 33.353 46.024C32.6857 46.7087 31.871 47.246 30.909 47.636C29.947 48.0173 28.8637 48.208 27.659 48.208C26.4457 48.208 25.358 48.0173 24.396 47.636C23.434 47.246 22.615 46.7087 21.939 46.024C21.2717 45.3307 20.756 44.5117 20.392 43.567C20.0367 42.6137 19.859 41.578 19.859 40.46V29.202H23.356V40.447C23.356 41.1663 23.4513 41.8163 23.642 42.397C23.8413 42.9777 24.123 43.476 24.487 43.892C24.8597 44.2993 25.3103 44.6157 25.839 44.841C26.3763 45.0663 26.983 45.179 27.659 45.179ZM54.9249 48H51.4409C51.1982 48 51.0032 47.9393 50.8559 47.818C50.7172 47.6967 50.6045 47.558 50.5179 47.402L46.1629 40.187C46.0935 40.4037 46.0112 40.59 45.9159 40.746L41.7429 47.402C41.6389 47.5493 41.5175 47.688 41.3789 47.818C41.2489 47.9393 41.0755 48 40.8589 48H37.5959L43.8359 38.328L37.8429 29.202H41.3269C41.5695 29.202 41.7429 29.2367 41.8469 29.306C41.9595 29.3667 42.0635 29.4707 42.1589 29.618L46.4359 36.508C46.5225 36.2913 46.6265 36.0747 46.7479 35.858L50.6739 29.683C50.7692 29.5183 50.8732 29.397 50.9859 29.319C51.0985 29.241 51.2415 29.202 51.4149 29.202H54.7559L48.7109 38.185L54.9249 48Z" fill="#005679"/>
<path d="M90 10L114.249 24V52L90 66L65.7513 52V24L90 10Z" fill="#E6F4FA" stroke="#005679" stroke-width="3"/>
<path d="M86.659 45.179C87.335 45.179 87.9373 45.0663 88.466 44.841C89.0033 44.6157 89.454 44.2993 89.818 43.892C90.182 43.4847 90.4593 42.9907 90.65 42.41C90.8493 41.8293 90.949 41.1793 90.949 40.46V29.202H94.446V40.46C94.446 41.578 94.264 42.6137 93.9 43.567C93.5447 44.5117 93.029 45.3307 92.353 46.024C91.6857 46.7087 90.871 47.246 89.909 47.636C88.947 48.0173 87.8637 48.208 86.659 48.208C85.4457 48.208 84.358 48.0173 83.396 47.636C82.434 47.246 81.615 46.7087 80.939 46.024C80.2717 45.3307 79.756 44.5117 79.392 43.567C79.0367 42.6137 78.859 41.578 78.859 40.46V29.202H82.356V40.447C82.356 41.1663 82.4513 41.8163 82.642 42.397C82.8413 42.9777 83.123 43.476 83.487 43.892C83.8597 44.2993 84.3103 44.6157 84.839 44.841C85.3763 45.0663 85.983 45.179 86.659 45.179ZM102.16 48H98.6499V29.202H102.16V48Z" fill="#003247"/>
</svg>
