<svg width="54" height="54" viewBox="0 0 54 54" fill="none" xmlns="http://www.w3.org/2000/svg">
<path d="M36.6898 3.42557C37.1239 3.53399 37.4971 3.81033 37.7275 4.19386C37.9579 4.57739 38.0265 5.0367 37.9183 5.47082L37.0746 8.84582C37.0252 9.06523 36.9325 9.27255 36.8018 9.45561C36.6712 9.63867 36.5053 9.79377 36.3138 9.91179C36.1224 10.0298 35.9093 10.1084 35.6871 10.1429C35.4648 10.1774 35.238 10.1671 35.0197 10.1127C34.8015 10.0582 34.5964 9.96072 34.4164 9.82588C34.2365 9.69104 34.0852 9.52158 33.9717 9.32746C33.8581 9.13334 33.7845 8.91849 33.7552 8.69552C33.7258 8.47254 33.7413 8.24596 33.8008 8.02907L34.6446 4.65407C34.753 4.22001 35.0293 3.84676 35.4129 3.6164C35.7964 3.38603 36.2557 3.31739 36.6898 3.42557ZM46.7574 7.24607C47.0738 7.56252 47.2515 7.99167 47.2515 8.43913C47.2515 8.8866 47.0738 9.31574 46.7574 9.6322L43.3824 13.0072C43.2268 13.1684 43.0406 13.2969 42.8347 13.3854C42.6288 13.4738 42.4074 13.5204 42.1833 13.5223C41.9592 13.5243 41.737 13.4816 41.5296 13.3967C41.3223 13.3119 41.1338 13.1866 40.9754 13.0281C40.817 12.8697 40.6917 12.6813 40.6068 12.4739C40.522 12.2665 40.4793 12.0443 40.4812 11.8202C40.4832 11.5961 40.5297 11.3747 40.6181 11.1688C40.7066 10.9629 40.8351 10.7767 40.9963 10.6211L44.3713 7.24607C44.6878 6.92971 45.1169 6.75199 45.5644 6.75199C46.0118 6.75199 46.441 6.92971 46.7574 7.24607ZM21.2087 43.9863C22.0557 45.3964 23.3884 46.4488 24.9566 46.9455C26.5247 47.4423 28.2203 47.3494 29.7247 46.6842C31.2292 46.019 32.4389 44.8274 33.1267 43.3331C33.8145 41.8389 33.933 40.1449 33.4599 38.5694L21.2087 43.9863ZM18.1037 45.3566L14.7354 46.8483C13.864 47.2333 12.8965 47.3458 11.9599 47.1712C11.0233 46.9965 10.1614 46.5428 9.48732 45.8696L8.13732 44.5229C7.46483 43.8534 7.01051 42.9962 6.83403 42.0638C6.65755 41.1314 6.76715 40.1674 7.14844 39.2984L20.2131 9.57144C20.5226 8.86946 20.9985 8.25341 21.5995 7.77653C22.2005 7.29966 22.9086 6.9763 23.6625 6.83441C24.4165 6.69252 25.1937 6.73637 25.9269 6.96215C26.6602 7.18794 27.3274 7.58888 27.8709 8.13032L45.8664 26.0718C46.4086 26.6125 46.8106 27.2773 47.0378 28.0085C47.265 28.7397 47.3104 29.5153 47.1701 30.268C47.0298 31.0208 46.708 31.7279 46.2326 32.3282C45.7573 32.9285 45.1427 33.4037 44.4422 33.7128L36.5616 37.1958C37.3946 39.5966 37.2944 42.2229 36.2808 44.5532C35.2673 46.8836 33.4145 48.7476 31.0903 49.7752C28.7661 50.8028 26.1405 50.9188 23.7347 50.1003C21.3289 49.2817 19.3189 47.5884 18.1037 45.3566ZM48.9377 16.8749H45.5627C45.1151 16.8749 44.6859 17.0527 44.3694 17.3692C44.053 17.6857 43.8752 18.1149 43.8752 18.5624C43.8752 19.01 44.053 19.4392 44.3694 19.7557C44.6859 20.0722 45.1151 20.2499 45.5627 20.2499H48.9377C49.3852 20.2499 49.8145 20.0722 50.1309 19.7557C50.4474 19.4392 50.6252 19.01 50.6252 18.5624C50.6252 18.1149 50.4474 17.6857 50.1309 17.3692C49.8145 17.0527 49.3852 16.8749 48.9377 16.8749ZM23.3046 10.9282L10.2366 40.6552C10.1285 40.9011 10.0975 41.1739 10.1475 41.4377C10.1975 41.7016 10.3262 41.9442 10.5167 42.1334L11.8701 43.4834C12.0629 43.6751 12.3092 43.8041 12.5765 43.8535C12.8439 43.9028 13.12 43.8703 13.3686 43.7602L43.0753 30.6247C43.2731 30.5372 43.4467 30.4028 43.581 30.2332C43.7153 30.0636 43.8063 29.8639 43.8462 29.6513C43.886 29.4386 43.8736 29.2195 43.8098 29.0128C43.7461 28.8061 43.633 28.618 43.4803 28.4647L25.4916 10.5164C25.3367 10.3625 25.1468 10.2484 24.9381 10.1839C24.7295 10.1195 24.5083 10.1066 24.2936 10.1465C24.0789 10.1863 23.877 10.2776 23.7053 10.4126C23.5337 10.5476 23.3973 10.7222 23.3079 10.9214" fill="#BABAC4"/>
</svg>
