<svg width="54" height="54" viewBox="0 0 54 54" fill="none" xmlns="http://www.w3.org/2000/svg">
<g clip-path="url(#clip0_187_5363)">
<path fill-rule="evenodd" clip-rule="evenodd" d="M27.0001 4.5C27.5512 4.50007 28.0831 4.7024 28.4949 5.06861C28.9068 5.43482 29.1699 5.93943 29.2344 6.48675L29.2501 6.75V11.6325C30.3329 12.0152 31.3001 12.6678 32.0604 13.5285C32.8207 14.3891 33.3489 15.4295 33.5951 16.5512C33.8413 17.6729 33.7973 18.8389 33.4674 19.9389C33.1374 21.0389 32.5323 22.0365 31.7094 22.8375L31.3854 23.1322L35.5119 33.8647C37.3587 32.8706 39.0185 31.5626 40.4169 29.9992C40.6131 29.776 40.8516 29.5938 41.1186 29.4632C41.3856 29.3326 41.6758 29.2562 41.9725 29.2385C42.2692 29.2207 42.5665 29.2619 42.8472 29.3597C43.1279 29.4574 43.3864 29.6099 43.6078 29.8081C43.8293 30.0064 44.0093 30.2466 44.1374 30.5148C44.2655 30.783 44.3391 31.0739 44.3542 31.3708C44.3692 31.6676 44.3252 31.9645 44.2249 32.2443C44.1245 32.524 43.9697 32.7811 43.7694 33.0007C42.1058 34.8599 40.1458 36.4307 37.9689 37.6492L37.1364 38.0925L40.3494 46.4422C40.5522 46.9773 40.5437 47.5695 40.3254 48.0984C40.1071 48.6273 39.6955 49.0532 39.1744 49.2894C38.6532 49.5256 38.0617 49.5544 37.5201 49.3699C36.9784 49.1854 36.5275 48.8015 36.2589 48.2962L36.1509 48.0577L32.9379 39.708C29.3256 40.6912 25.5257 40.7623 21.8791 39.915L21.0624 39.708L17.8494 48.0577C17.643 48.5931 17.2398 49.0293 16.7225 49.2773C16.2051 49.5253 15.6125 49.5662 15.0659 49.3918C14.5194 49.2174 14.0601 48.8407 13.782 48.3389C13.5039 47.837 13.428 47.2479 13.5699 46.692L13.6509 46.4422L22.6149 23.1322C21.7403 22.3855 21.071 21.4276 20.6706 20.3496C20.2701 19.2715 20.1517 18.1091 20.3266 16.9724C20.5015 15.8358 20.9639 14.7627 21.6699 13.8549C22.376 12.9471 23.3022 12.2348 24.3609 11.7855L24.7501 11.6325V6.75C24.7501 6.15326 24.9872 5.58097 25.4091 5.15901C25.8311 4.73705 26.4034 4.5 27.0001 4.5ZM31.3134 35.4825L27.1846 24.7477L27.0001 24.75L26.8156 24.7477L22.6869 35.4802C24.0984 35.8266 25.5467 36.0011 27.0001 36C28.4851 36 29.9319 35.82 31.3134 35.4825ZM27.0001 15.75C26.4034 15.75 25.8311 15.9871 25.4091 16.409C24.9872 16.831 24.7501 17.4033 24.7501 18C24.7501 18.5967 24.9872 19.169 25.4091 19.591C25.8311 20.0129 26.4034 20.25 27.0001 20.25C27.5968 20.25 28.1691 20.0129 28.5911 19.591C29.0131 19.169 29.2501 18.5967 29.2501 18C29.2501 17.4033 29.0131 16.831 28.5911 16.409C28.1691 15.9871 27.5968 15.75 27.0001 15.75Z" fill="#BABAC4"/>
</g>
<defs>
<clipPath id="clip0_187_5363">
<rect width="54" height="54" fill="white"/>
</clipPath>
</defs>
</svg>
