<svg width="54" height="54" viewBox="0 0 54 54" fill="none" xmlns="http://www.w3.org/2000/svg">
<path d="M33.2754 21.2142C34.4262 21.2142 35.5299 21.6714 36.3437 22.4852C37.1575 23.2989 37.6146 24.4027 37.6146 25.5535V37.6051C37.6146 40.4188 36.4969 43.1173 34.5073 45.1069C32.5177 47.0965 29.8193 48.2142 27.0056 48.2142C24.1919 48.2142 21.4934 47.0965 19.5038 45.1069C17.5142 43.1173 16.3965 40.4188 16.3965 37.6051V25.5535C16.3965 24.4027 16.8537 23.2989 17.6675 22.4852C18.4812 21.6714 19.5849 21.2142 20.7358 21.2142H33.2754ZM33.2754 24.1071H20.7358C20.3522 24.1071 19.9843 24.2595 19.713 24.5307C19.4418 24.802 19.2894 25.1699 19.2894 25.5535V37.6051C19.2894 39.6516 20.1023 41.6143 21.5494 43.0613C22.9965 44.5084 24.9591 45.3214 27.0056 45.3214C29.052 45.3214 31.0147 44.5084 32.4618 43.0613C33.9088 41.6143 34.7218 39.6516 34.7218 37.6051V25.5535C34.7218 25.1699 34.5694 24.802 34.2981 24.5307C34.0269 24.2595 33.659 24.1071 33.2754 24.1071ZM8.19622 21.2142H16.2114C15.4371 22.0204 14.893 23.0193 14.6357 24.1071H8.19622C7.8126 24.1071 7.4447 24.2595 7.17344 24.5307C6.90218 24.802 6.74979 25.1699 6.74979 25.5535V35.6766C6.74953 36.6442 6.9919 37.5965 7.45474 38.4463C7.91757 39.2961 8.58609 40.0163 9.39914 40.541C10.2122 41.0657 11.1438 41.3782 12.1089 41.4499C13.0739 41.5215 14.0414 41.3501 14.9231 40.9512C15.1796 41.8962 15.5479 42.7949 16.0108 43.6358C14.6895 44.2127 13.2453 44.4514 11.8086 44.3303C10.3719 44.2093 8.98798 43.7323 7.78182 42.9424C6.57566 42.1525 5.58525 41.0746 4.90001 39.8061C4.21477 38.5376 3.85629 37.1183 3.85693 35.6766V25.5535C3.85693 24.4027 4.31411 23.2989 5.12788 22.4852C5.94166 21.6714 7.04537 21.2142 8.19622 21.2142ZM45.8034 21.2142C46.9542 21.2142 48.0579 21.6714 48.8717 22.4852C49.6855 23.2989 50.1426 24.4027 50.1426 25.5535V35.6785C50.1432 37.1195 49.785 38.5379 49.1003 39.8058C48.4156 41.0737 47.426 42.1511 46.2207 42.9409C45.0155 43.7307 43.6326 44.2079 42.1968 44.3296C40.761 44.4512 39.3174 44.2135 37.9965 43.6377L38.1045 43.441C38.5172 42.658 38.8509 41.8268 39.09 40.9551C39.9712 41.3516 40.9376 41.521 41.9011 41.4481C42.8645 41.3751 43.7944 41.062 44.6058 40.5373C45.4172 40.0126 46.0842 39.2931 46.5461 38.4443C47.0079 37.5956 47.2499 36.6447 47.2498 35.6785V25.5535C47.2498 25.1702 47.0977 24.8026 46.8268 24.5314C46.556 24.2602 46.1886 24.1076 45.8053 24.1071H39.3774C39.1196 23.0191 38.5748 22.0201 37.7998 21.2142H45.8034ZM26.9998 5.78564C27.8862 5.78564 28.764 5.96024 29.5829 6.29946C30.4018 6.63868 31.146 7.13588 31.7728 7.76267C32.3996 8.38947 32.8968 9.13358 33.236 9.95253C33.5752 10.7715 33.7498 11.6492 33.7498 12.5356C33.7498 13.4221 33.5752 14.2998 33.236 15.1188C32.8968 15.9377 32.3996 16.6818 31.7728 17.3086C31.146 17.9354 30.4018 18.4326 29.5829 18.7718C28.764 19.1111 27.8862 19.2856 26.9998 19.2856C25.2096 19.2856 23.4927 18.5745 22.2268 17.3086C20.9609 16.0427 20.2498 14.3259 20.2498 12.5356C20.2498 10.7454 20.9609 9.02854 22.2268 7.76267C23.4927 6.4968 25.2096 5.78564 26.9998 5.78564ZM42.4341 7.71422C43.1939 7.71422 43.9463 7.86387 44.6482 8.15463C45.3502 8.44539 45.988 8.87156 46.5253 9.40881C47.0625 9.94607 47.4887 10.5839 47.7794 11.2858C48.0702 11.9878 48.2199 12.7401 48.2199 13.4999C48.2199 14.2597 48.0702 15.0121 47.7794 15.714C47.4887 16.416 47.0625 17.0538 46.5253 17.591C45.988 18.1283 45.3502 18.5545 44.6482 18.8452C43.9463 19.136 43.1939 19.2856 42.4341 19.2856C40.8997 19.2856 39.4281 18.6761 38.343 17.591C37.258 16.506 36.6484 15.0344 36.6484 13.4999C36.6484 11.9655 37.258 10.4938 38.343 9.40881C39.4281 8.32378 40.8997 7.71422 42.4341 7.71422ZM11.5654 7.71422C12.3252 7.71422 13.0776 7.86387 13.7795 8.15463C14.4815 8.44539 15.1193 8.87156 15.6566 9.40881C16.1938 9.94607 16.62 10.5839 16.9107 11.2858C17.2015 11.9878 17.3511 12.7401 17.3511 13.4999C17.3511 14.2597 17.2015 15.0121 16.9107 15.714C16.62 16.416 16.1938 17.0538 15.6566 17.591C15.1193 18.1283 14.4815 18.5545 13.7795 18.8452C13.0776 19.136 12.3252 19.2856 11.5654 19.2856C10.031 19.2856 8.55935 18.6761 7.47432 17.591C6.38928 16.506 5.77972 15.0344 5.77972 13.4999C5.77972 11.9655 6.38928 10.4938 7.47432 9.40881C8.55935 8.32378 10.031 7.71422 11.5654 7.71422ZM26.9998 8.6785C25.9768 8.6785 24.9957 9.08488 24.2724 9.80823C23.549 10.5316 23.1426 11.5127 23.1426 12.5356C23.1426 13.5586 23.549 14.5397 24.2724 15.2631C24.9957 15.9864 25.9768 16.3928 26.9998 16.3928C28.0228 16.3928 29.0038 15.9864 29.7272 15.2631C30.4506 14.5397 30.8569 13.5586 30.8569 12.5356C30.8569 11.5127 30.4506 10.5316 29.7272 9.80823C29.0038 9.08488 28.0228 8.6785 26.9998 8.6785ZM42.4341 10.6071C42.0543 10.6071 41.6781 10.6819 41.3271 10.8273C40.9761 10.9727 40.6572 11.1857 40.3886 11.4544C40.12 11.723 39.9069 12.0419 39.7615 12.3929C39.6161 12.7439 39.5413 13.12 39.5413 13.4999C39.5413 13.8798 39.6161 14.256 39.7615 14.607C39.9069 14.958 40.12 15.2769 40.3886 15.5455C40.6572 15.8141 40.9761 16.0272 41.3271 16.1726C41.6781 16.318 42.0543 16.3928 42.4341 16.3928C43.2014 16.3928 43.9372 16.088 44.4797 15.5455C45.0222 15.003 45.327 14.2672 45.327 13.4999C45.327 12.7327 45.0222 11.9969 44.4797 11.4544C43.9372 10.9119 43.2014 10.6071 42.4341 10.6071ZM11.5654 10.6071C11.1855 10.6071 10.8094 10.6819 10.4584 10.8273C10.1074 10.9727 9.7885 11.1857 9.51988 11.4544C9.25125 11.723 9.03816 12.0419 8.89278 12.3929C8.7474 12.7439 8.67258 13.12 8.67258 13.4999C8.67258 13.8798 8.7474 14.256 8.89278 14.607C9.03816 14.958 9.25125 15.2769 9.51988 15.5455C9.7885 15.8141 10.1074 16.0272 10.4584 16.1726C10.8094 16.318 11.1855 16.3928 11.5654 16.3928C12.3327 16.3928 13.0685 16.088 13.611 15.5455C14.1535 15.003 14.4583 14.2672 14.4583 13.4999C14.4583 12.7327 14.1535 11.9969 13.611 11.4544C13.0685 10.9119 12.3327 10.6071 11.5654 10.6071Z" fill="#BABAC4"/>
</svg>
