<svg width="52" height="52" viewBox="0 0 52 52" fill="none" xmlns="http://www.w3.org/2000/svg">
<path d="M48.5874 19.7621C48.3906 19.1556 48.0198 18.6203 47.521 18.223C47.0222 17.8257 46.4175 17.5839 45.7823 17.5277L33.7187 16.4877L28.9899 5.24274C28.7437 4.65269 28.3285 4.14868 27.7964 3.79417C27.2644 3.43965 26.6393 3.25049 25.9999 3.25049C25.3606 3.25049 24.7355 3.43965 24.2035 3.79417C23.6714 4.14868 23.2561 4.65269 23.0099 5.24274L18.2954 16.4877L6.2176 17.5338C5.57986 17.5874 4.97214 17.8281 4.47064 18.2257C3.96915 18.6233 3.5962 19.1601 3.39858 19.7688C3.20095 20.3775 3.18745 21.0311 3.35975 21.6474C3.53205 22.2638 3.8825 22.8155 4.36713 23.2335L13.5301 31.2407L10.7839 43.1316C10.6386 43.7539 10.6801 44.4052 10.903 45.004C11.1259 45.6028 11.5204 46.1227 12.0371 46.4985C12.5539 46.8744 13.1699 47.0896 13.8083 47.1172C14.4467 47.1448 15.0791 46.9837 15.6264 46.6538L25.9857 40.357L36.3674 46.6538C36.9147 46.9837 37.5471 47.1448 38.1855 47.1172C38.8239 47.0896 39.4399 46.8744 39.9567 46.4985C40.4734 46.1227 40.8679 45.6028 41.0908 45.004C41.3137 44.4052 41.3552 43.7539 41.2099 43.1316L38.4657 31.2285L47.6267 23.2335C48.1112 22.8141 48.461 22.2608 48.6319 21.6431C48.8029 21.0254 48.7874 20.371 48.5874 19.7621ZM45.4959 20.7777L36.3349 28.7727C35.8891 29.1606 35.5574 29.6626 35.3756 30.2249C35.1938 30.7872 35.1687 31.3884 35.3031 31.9638L38.0554 43.8751L27.6818 37.5782C27.1757 37.27 26.5946 37.107 26.002 37.107C25.4094 37.107 24.8282 37.27 24.3221 37.5782L13.9628 43.8751L16.6968 31.972C16.8312 31.3965 16.8061 30.7953 16.6243 30.233C16.4425 29.6708 16.1108 29.1687 15.6649 28.7809L6.49995 20.7899C6.4992 20.7839 6.4992 20.7777 6.49995 20.7716L18.5737 19.7276C19.1632 19.6756 19.7273 19.4637 20.2051 19.1147C20.683 18.7657 21.0565 18.2928 21.2854 17.7471L25.9999 6.51633L30.7124 17.7471C30.9413 18.2928 31.3148 18.7657 31.7927 19.1147C32.2706 19.4637 32.8347 19.6756 33.4242 19.7276L45.4999 20.7716V20.7859L45.4959 20.7777Z" fill="#BABAC4"/>
</svg>
