<svg width="119" height="48" viewBox="0 0 119 48" fill="none" xmlns="http://www.w3.org/2000/svg">
<path d="M62.9105 13.752C62.6065 13.2933 62.2678 12.9707 61.8945 12.784C61.5265 12.5973 61.1052 12.504 60.6305 12.504C60.1612 12.504 59.7505 12.5893 59.3985 12.76C59.0465 12.9307 58.7505 13.1733 58.5105 13.488C58.2758 13.7973 58.0972 14.1707 57.9745 14.608C57.8572 15.04 57.7985 15.5173 57.7985 16.04C57.7985 17.224 58.0145 18.096 58.4465 18.656C58.8838 19.2107 59.5132 19.488 60.3345 19.488C60.8572 19.488 61.3345 19.352 61.7665 19.08C62.1985 18.808 62.5798 18.4267 62.9105 17.936V13.752ZM63.6705 8.36V20H63.2545C63.1158 20 63.0358 19.9307 63.0145 19.792L62.9345 18.536C62.5825 19.016 62.1718 19.3973 61.7025 19.68C61.2332 19.9627 60.7052 20.104 60.1185 20.104C59.1372 20.104 58.3745 19.7653 57.8305 19.088C57.2865 18.4107 57.0145 17.3947 57.0145 16.04C57.0145 15.4587 57.0892 14.9173 57.2385 14.416C57.3932 13.9093 57.6172 13.472 57.9105 13.104C58.2038 12.7307 58.5638 12.4373 58.9905 12.224C59.4225 12.0107 59.9185 11.904 60.4785 11.904C61.0172 11.904 61.4838 12.0027 61.8785 12.2C62.2732 12.3973 62.6172 12.6907 62.9105 13.08V8.36H63.6705ZM72.035 15.216C72.035 14.7893 71.9737 14.408 71.851 14.072C71.7337 13.7307 71.5657 13.4427 71.347 13.208C71.1283 12.9733 70.867 12.7947 70.563 12.672C70.2643 12.544 69.9337 12.48 69.571 12.48C69.1603 12.48 68.7923 12.544 68.467 12.672C68.1417 12.8 67.859 12.984 67.619 13.224C67.3843 13.464 67.195 13.752 67.051 14.088C66.907 14.424 66.811 14.8 66.763 15.216H72.035ZM66.723 15.704V15.856C66.723 16.4533 66.7923 16.9787 66.931 17.432C67.0697 17.8853 67.267 18.2667 67.523 18.576C67.779 18.88 68.0883 19.1093 68.451 19.264C68.8137 19.4187 69.219 19.496 69.667 19.496C70.067 19.496 70.4137 19.4533 70.707 19.368C71.0003 19.2773 71.2457 19.1787 71.443 19.072C71.6457 18.96 71.8057 18.8613 71.923 18.776C72.0403 18.6853 72.1257 18.64 72.179 18.64C72.2483 18.64 72.3017 18.6667 72.339 18.72L72.547 18.976C72.419 19.136 72.2483 19.2853 72.035 19.424C71.827 19.5627 71.5923 19.6827 71.331 19.784C71.075 19.88 70.7977 19.9573 70.499 20.016C70.2057 20.0747 69.9097 20.104 69.611 20.104C69.067 20.104 68.571 20.0107 68.123 19.824C67.675 19.632 67.291 19.3547 66.971 18.992C66.651 18.6293 66.403 18.1867 66.227 17.664C66.0563 17.136 65.971 16.5333 65.971 15.856C65.971 15.2853 66.051 14.76 66.211 14.28C66.3763 13.7947 66.611 13.3787 66.915 13.032C67.2243 12.68 67.6003 12.4053 68.043 12.208C68.491 12.0107 68.9977 11.912 69.563 11.912C70.011 11.912 70.427 11.9893 70.811 12.144C71.195 12.2987 71.5283 12.5253 71.811 12.824C72.0937 13.1173 72.315 13.48 72.475 13.912C72.6403 14.344 72.723 14.84 72.723 15.4C72.723 15.5173 72.707 15.5973 72.675 15.64C72.643 15.6827 72.5897 15.704 72.515 15.704H66.723ZM79.3308 13.024C79.2881 13.0987 79.2268 13.136 79.1468 13.136C79.0881 13.136 79.0134 13.104 78.9228 13.04C78.8321 12.9707 78.7094 12.896 78.5548 12.816C78.4054 12.7307 78.2188 12.656 77.9948 12.592C77.7708 12.5227 77.4988 12.488 77.1788 12.488C76.8908 12.488 76.6268 12.5307 76.3868 12.616C76.1521 12.696 75.9494 12.8053 75.7788 12.944C75.6134 13.0827 75.4854 13.2453 75.3948 13.432C75.3041 13.6133 75.2588 13.8053 75.2588 14.008C75.2588 14.2587 75.3228 14.4667 75.4508 14.632C75.5788 14.7973 75.7441 14.9387 75.9468 15.056C76.1548 15.1733 76.3921 15.2747 76.6588 15.36C76.9254 15.4453 77.1948 15.5307 77.4668 15.616C77.7441 15.7013 78.0161 15.7973 78.2828 15.904C78.5494 16.0053 78.7841 16.1333 78.9868 16.288C79.1948 16.4427 79.3628 16.632 79.4908 16.856C79.6188 17.08 79.6828 17.352 79.6828 17.672C79.6828 18.0187 79.6214 18.3413 79.4988 18.64C79.3761 18.9387 79.1948 19.1973 78.9548 19.416C78.7201 19.6347 78.4294 19.808 78.0828 19.936C77.7361 20.064 77.3388 20.128 76.8908 20.128C76.3308 20.128 75.8481 20.04 75.4428 19.864C75.0374 19.6827 74.6748 19.448 74.3548 19.16L74.5308 18.888C74.5574 18.8453 74.5868 18.8133 74.6188 18.792C74.6561 18.7707 74.7041 18.76 74.7628 18.76C74.8321 18.76 74.9148 18.8027 75.0108 18.888C75.1121 18.9733 75.2454 19.0667 75.4108 19.168C75.5761 19.264 75.7788 19.3547 76.0188 19.44C76.2641 19.5253 76.5654 19.568 76.9228 19.568C77.2588 19.568 77.5548 19.5227 77.8108 19.432C78.0668 19.336 78.2801 19.208 78.4508 19.048C78.6214 18.888 78.7494 18.7013 78.8348 18.488C78.9254 18.2693 78.9708 18.04 78.9708 17.8C78.9708 17.5333 78.9068 17.312 78.7788 17.136C78.6508 16.96 78.4828 16.8107 78.2748 16.688C78.0668 16.5653 77.8294 16.4613 77.5628 16.376C77.3014 16.2907 77.0321 16.2053 76.7548 16.12C76.4774 16.0347 76.2054 15.9413 75.9388 15.84C75.6774 15.7387 75.4428 15.6107 75.2348 15.456C75.0268 15.3013 74.8588 15.1147 74.7308 14.896C74.6028 14.672 74.5388 14.3947 74.5388 14.064C74.5388 13.7813 74.6001 13.5093 74.7228 13.248C74.8454 12.9867 75.0188 12.7573 75.2428 12.56C75.4721 12.3627 75.7494 12.2053 76.0748 12.088C76.4001 11.9707 76.7654 11.912 77.1708 11.912C77.6561 11.912 78.0854 11.9813 78.4588 12.12C78.8374 12.2587 79.1814 12.472 79.4908 12.76L79.3308 13.024ZM82.7596 12.04V20H81.9996V12.04H82.7596ZM83.0876 9.296C83.0876 9.392 83.0663 9.48267 83.0236 9.568C82.9863 9.648 82.9356 9.72 82.8716 9.784C82.8076 9.848 82.733 9.89867 82.6476 9.936C82.5623 9.97333 82.4716 9.992 82.3756 9.992C82.2796 9.992 82.189 9.97333 82.1036 9.936C82.0183 9.89867 81.9436 9.848 81.8796 9.784C81.8156 9.72 81.765 9.648 81.7276 9.568C81.6903 9.48267 81.6716 9.392 81.6716 9.296C81.6716 9.2 81.6903 9.10933 81.7276 9.024C81.765 8.93333 81.8156 8.856 81.8796 8.792C81.9436 8.728 82.0183 8.67733 82.1036 8.64C82.189 8.60267 82.2796 8.584 82.3756 8.584C82.4716 8.584 82.5623 8.60267 82.6476 8.64C82.733 8.67733 82.8076 8.728 82.8716 8.792C82.9356 8.856 82.9863 8.93333 83.0236 9.024C83.0663 9.10933 83.0876 9.2 83.0876 9.296ZM88.2341 16.48C88.5755 16.48 88.8795 16.432 89.1461 16.336C89.4128 16.2347 89.6368 16.096 89.8181 15.92C89.9995 15.744 90.1381 15.5333 90.2341 15.288C90.3301 15.0427 90.3781 14.7707 90.3781 14.472C90.3781 14.1733 90.3275 13.9013 90.2261 13.656C90.1301 13.4053 89.9888 13.192 89.8021 13.016C89.6208 12.84 89.3968 12.704 89.1301 12.608C88.8688 12.512 88.5701 12.464 88.2341 12.464C87.8981 12.464 87.5968 12.512 87.3301 12.608C87.0688 12.704 86.8448 12.84 86.6581 13.016C86.4768 13.192 86.3381 13.4053 86.2421 13.656C86.1461 13.9013 86.0981 14.1733 86.0981 14.472C86.0981 14.7707 86.1461 15.0427 86.2421 15.288C86.3381 15.5333 86.4768 15.744 86.6581 15.92C86.8448 16.096 87.0688 16.2347 87.3301 16.336C87.5968 16.432 87.8981 16.48 88.2341 16.48ZM91.2101 20.536C91.2101 20.2853 91.1435 20.0853 91.0101 19.936C90.8821 19.7813 90.7088 19.6613 90.4901 19.576C90.2715 19.4907 90.0181 19.432 89.7301 19.4C89.4475 19.3627 89.1488 19.336 88.8341 19.32C88.5248 19.304 88.2128 19.288 87.8981 19.272C87.5835 19.256 87.2875 19.224 87.0101 19.176C86.8075 19.256 86.6208 19.3493 86.4501 19.456C86.2795 19.5573 86.1328 19.6747 86.0101 19.808C85.8875 19.9413 85.7915 20.0853 85.7221 20.24C85.6528 20.4 85.6181 20.5707 85.6181 20.752C85.6181 20.9867 85.6768 21.2027 85.7941 21.4C85.9168 21.6027 86.0928 21.776 86.3221 21.92C86.5568 22.0693 86.8421 22.1867 87.1781 22.272C87.5141 22.3573 87.9008 22.4 88.3381 22.4C88.7435 22.4 89.1195 22.3547 89.4661 22.264C89.8181 22.1733 90.1221 22.0453 90.3781 21.88C90.6395 21.7147 90.8421 21.5173 90.9861 21.288C91.1355 21.0587 91.2101 20.808 91.2101 20.536ZM92.0421 12.392V12.656C92.0421 12.7733 91.9675 12.8453 91.8181 12.872L90.6021 12.96C90.7515 13.1627 90.8661 13.3893 90.9461 13.64C91.0261 13.8907 91.0661 14.1627 91.0661 14.456C91.0661 14.84 90.9968 15.1893 90.8581 15.504C90.7248 15.8133 90.5328 16.08 90.2821 16.304C90.0368 16.5227 89.7381 16.6933 89.3861 16.816C89.0395 16.9387 88.6555 17 88.2341 17C87.7808 17 87.3675 16.9307 86.9941 16.792C86.7701 16.92 86.5915 17.072 86.4581 17.248C86.3301 17.4187 86.2661 17.5893 86.2661 17.76C86.2661 17.9893 86.3461 18.1653 86.5061 18.288C86.6715 18.4107 86.8848 18.5013 87.1461 18.56C87.4128 18.6133 87.7141 18.648 88.0501 18.664C88.3915 18.68 88.7381 18.6987 89.0901 18.72C89.4421 18.736 89.7861 18.768 90.1221 18.816C90.4635 18.864 90.7648 18.9493 91.0261 19.072C91.2928 19.1893 91.5061 19.3573 91.6661 19.576C91.8315 19.7893 91.9141 20.0747 91.9141 20.432C91.9141 20.7627 91.8315 21.08 91.6661 21.384C91.5008 21.688 91.2608 21.9573 90.9461 22.192C90.6368 22.4267 90.2608 22.6133 89.8181 22.752C89.3755 22.896 88.8795 22.968 88.3301 22.968C87.7701 22.968 87.2795 22.9093 86.8581 22.792C86.4368 22.68 86.0821 22.5253 85.7941 22.328C85.5115 22.136 85.2981 21.912 85.1541 21.656C85.0101 21.4 84.9381 21.128 84.9381 20.84C84.9381 20.4187 85.0768 20.0587 85.3541 19.76C85.6315 19.456 86.0101 19.2187 86.4901 19.048C86.2235 18.9573 86.0075 18.8267 85.8421 18.656C85.6821 18.48 85.6021 18.2427 85.6021 17.944C85.6021 17.832 85.6235 17.7147 85.6661 17.592C85.7088 17.4693 85.7728 17.3493 85.8581 17.232C85.9435 17.1093 86.0475 16.9947 86.1701 16.888C86.2928 16.7813 86.4315 16.6853 86.5861 16.6C86.2075 16.3813 85.9115 16.0907 85.6981 15.728C85.4901 15.3653 85.3861 14.9413 85.3861 14.456C85.3861 14.072 85.4528 13.7253 85.5861 13.416C85.7248 13.1013 85.9195 12.832 86.1701 12.608C86.4208 12.384 86.7195 12.2107 87.0661 12.088C87.4181 11.9653 87.8075 11.904 88.2341 11.904C88.5861 11.904 88.9088 11.9467 89.2021 12.032C89.5008 12.1173 89.7675 12.2373 90.0021 12.392H92.0421ZM94.694 13.432C95.062 12.9733 95.486 12.6053 95.966 12.328C96.4513 12.0507 96.99 11.912 97.582 11.912C98.0193 11.912 98.4033 11.9813 98.734 12.12C99.07 12.2587 99.3473 12.4587 99.566 12.72C99.7847 12.9813 99.95 13.296 100.062 13.664C100.174 14.032 100.23 14.448 100.23 14.912V20H99.462V14.912C99.462 14.1653 99.2913 13.5813 98.95 13.16C98.6087 12.7333 98.0887 12.52 97.39 12.52C96.8727 12.52 96.3873 12.6533 95.934 12.92C95.486 13.1813 95.086 13.5467 94.734 14.016V20H93.966V12.04H94.39C94.5233 12.04 94.6007 12.1067 94.622 12.24L94.694 13.432ZM108.507 15.216C108.507 14.7893 108.446 14.408 108.323 14.072C108.206 13.7307 108.038 13.4427 107.819 13.208C107.6 12.9733 107.339 12.7947 107.035 12.672C106.736 12.544 106.406 12.48 106.043 12.48C105.632 12.48 105.264 12.544 104.939 12.672C104.614 12.8 104.331 12.984 104.091 13.224C103.856 13.464 103.667 13.752 103.523 14.088C103.379 14.424 103.283 14.8 103.235 15.216H108.507ZM103.195 15.704V15.856C103.195 16.4533 103.264 16.9787 103.403 17.432C103.542 17.8853 103.739 18.2667 103.995 18.576C104.251 18.88 104.56 19.1093 104.923 19.264C105.286 19.4187 105.691 19.496 106.139 19.496C106.539 19.496 106.886 19.4533 107.179 19.368C107.472 19.2773 107.718 19.1787 107.915 19.072C108.118 18.96 108.278 18.8613 108.395 18.776C108.512 18.6853 108.598 18.64 108.651 18.64C108.72 18.64 108.774 18.6667 108.811 18.72L109.019 18.976C108.891 19.136 108.72 19.2853 108.507 19.424C108.299 19.5627 108.064 19.6827 107.803 19.784C107.547 19.88 107.27 19.9573 106.971 20.016C106.678 20.0747 106.382 20.104 106.083 20.104C105.539 20.104 105.043 20.0107 104.595 19.824C104.147 19.632 103.763 19.3547 103.443 18.992C103.123 18.6293 102.875 18.1867 102.699 17.664C102.528 17.136 102.443 16.5333 102.443 15.856C102.443 15.2853 102.523 14.76 102.683 14.28C102.848 13.7947 103.083 13.3787 103.387 13.032C103.696 12.68 104.072 12.4053 104.515 12.208C104.963 12.0107 105.47 11.912 106.035 11.912C106.483 11.912 106.899 11.9893 107.283 12.144C107.667 12.2987 108 12.5253 108.283 12.824C108.566 13.1173 108.787 13.48 108.947 13.912C109.112 14.344 109.195 14.84 109.195 15.4C109.195 15.5173 109.179 15.5973 109.147 15.64C109.115 15.6827 109.062 15.704 108.987 15.704H103.195ZM112.155 13.96C112.277 13.6347 112.416 13.3467 112.571 13.096C112.731 12.84 112.912 12.624 113.115 12.448C113.323 12.272 113.552 12.1387 113.803 12.048C114.059 11.952 114.341 11.904 114.651 11.904C114.816 11.904 114.979 11.92 115.139 11.952C115.299 11.9787 115.44 12.0293 115.563 12.104L115.499 12.632C115.472 12.7173 115.421 12.76 115.347 12.76C115.283 12.76 115.184 12.7413 115.051 12.704C114.923 12.6667 114.752 12.648 114.539 12.648C114.229 12.648 113.955 12.696 113.715 12.792C113.48 12.8827 113.267 13.0213 113.075 13.208C112.888 13.3947 112.723 13.6267 112.579 13.904C112.44 14.176 112.312 14.4907 112.195 14.848V20H111.427V12.04H111.835C111.925 12.04 111.989 12.0587 112.027 12.096C112.064 12.1333 112.088 12.1973 112.099 12.288L112.155 13.96Z" fill="#464F53"/>
<path d="M74.1972 33.104C74.1705 33.1307 74.1439 33.1547 74.1172 33.176C74.0959 33.192 74.0639 33.2 74.0212 33.2C73.9679 33.2 73.8959 33.1653 73.8052 33.096C73.7145 33.0213 73.5919 32.9413 73.4372 32.856C73.2825 32.7707 73.0879 32.6933 72.8532 32.624C72.6239 32.5493 72.3439 32.512 72.0132 32.512C71.5545 32.512 71.1465 32.5947 70.7892 32.76C70.4372 32.92 70.1385 33.152 69.8932 33.456C69.6479 33.76 69.4612 34.128 69.3332 34.56C69.2105 34.992 69.1492 35.4773 69.1492 36.016C69.1492 36.576 69.2132 37.072 69.3412 37.504C69.4745 37.936 69.6612 38.3013 69.9012 38.6C70.1412 38.8933 70.4319 39.1173 70.7732 39.272C71.1145 39.4267 71.4932 39.504 71.9092 39.504C72.2932 39.504 72.6132 39.4587 72.8692 39.368C73.1305 39.2773 73.3439 39.1787 73.5092 39.072C73.6799 38.9653 73.8132 38.8667 73.9092 38.776C74.0052 38.6853 74.0852 38.64 74.1492 38.64C74.2132 38.64 74.2665 38.6667 74.3092 38.72L74.5092 38.976C74.3865 39.136 74.2319 39.2853 74.0452 39.424C73.8585 39.5627 73.6479 39.6827 73.4132 39.784C73.1785 39.8853 72.9225 39.9627 72.6452 40.016C72.3732 40.0747 72.0879 40.104 71.7892 40.104C71.2825 40.104 70.8185 40.0133 70.3972 39.832C69.9812 39.6453 69.6212 39.3787 69.3172 39.032C69.0185 38.68 68.7839 38.2507 68.6132 37.744C68.4479 37.2373 68.3652 36.6613 68.3652 36.016C68.3652 35.408 68.4452 34.8533 68.6052 34.352C68.7652 33.8507 68.9999 33.4187 69.3092 33.056C69.6185 32.6933 69.9945 32.4133 70.4372 32.216C70.8852 32.0133 71.3972 31.912 71.9732 31.912C72.4905 31.912 72.9492 31.9947 73.3492 32.16C73.7492 32.3253 74.0985 32.5493 74.3972 32.832L74.1972 33.104ZM79.5478 31.912C80.1185 31.912 80.6278 32.0107 81.0758 32.208C81.5292 32.4 81.9105 32.6747 82.2198 33.032C82.5292 33.3893 82.7638 33.8213 82.9238 34.328C83.0892 34.8293 83.1718 35.392 83.1718 36.016C83.1718 36.64 83.0892 37.2027 82.9238 37.704C82.7638 38.2053 82.5292 38.6347 82.2198 38.992C81.9105 39.3493 81.5292 39.624 81.0758 39.816C80.6278 40.008 80.1185 40.104 79.5478 40.104C78.9772 40.104 78.4652 40.008 78.0118 39.816C77.5638 39.624 77.1825 39.3493 76.8678 38.992C76.5585 38.6347 76.3212 38.2053 76.1558 37.704C75.9958 37.2027 75.9158 36.64 75.9158 36.016C75.9158 35.392 75.9958 34.8293 76.1558 34.328C76.3212 33.8213 76.5585 33.3893 76.8678 33.032C77.1825 32.6747 77.5638 32.4 78.0118 32.208C78.4652 32.0107 78.9772 31.912 79.5478 31.912ZM79.5478 39.504C80.0225 39.504 80.4358 39.424 80.7878 39.264C81.1452 39.0987 81.4412 38.864 81.6758 38.56C81.9158 38.256 82.0945 37.8907 82.2118 37.464C82.3292 37.032 82.3878 36.5493 82.3878 36.016C82.3878 35.488 82.3292 35.008 82.2118 34.576C82.0945 34.144 81.9158 33.776 81.6758 33.472C81.4412 33.1627 81.1452 32.9253 80.7878 32.76C80.4358 32.5947 80.0225 32.512 79.5478 32.512C79.0732 32.512 78.6572 32.5947 78.2998 32.76C77.9478 32.9253 77.6518 33.1627 77.4118 33.472C77.1772 33.776 76.9985 34.144 76.8758 34.576C76.7585 35.008 76.6998 35.488 76.6998 36.016C76.6998 36.5493 76.7585 37.032 76.8758 37.464C76.9985 37.8907 77.1772 38.256 77.4118 38.56C77.6518 38.864 77.9478 39.0987 78.2998 39.264C78.6572 39.424 79.0732 39.504 79.5478 39.504ZM90.9097 33.752C90.6057 33.2933 90.267 32.9707 89.8937 32.784C89.5257 32.5973 89.1044 32.504 88.6297 32.504C88.1604 32.504 87.7497 32.5893 87.3977 32.76C87.0457 32.9307 86.7497 33.1733 86.5097 33.488C86.275 33.7973 86.0964 34.1707 85.9737 34.608C85.8564 35.04 85.7977 35.5173 85.7977 36.04C85.7977 37.224 86.0137 38.096 86.4457 38.656C86.883 39.2107 87.5124 39.488 88.3337 39.488C88.8564 39.488 89.3337 39.352 89.7657 39.08C90.1977 38.808 90.579 38.4267 90.9097 37.936V33.752ZM91.6697 28.36V40H91.2537C91.115 40 91.035 39.9307 91.0137 39.792L90.9337 38.536C90.5817 39.016 90.171 39.3973 89.7017 39.68C89.2324 39.9627 88.7044 40.104 88.1177 40.104C87.1364 40.104 86.3737 39.7653 85.8297 39.088C85.2857 38.4107 85.0137 37.3947 85.0137 36.04C85.0137 35.4587 85.0884 34.9173 85.2377 34.416C85.3924 33.9093 85.6164 33.472 85.9097 33.104C86.203 32.7307 86.563 32.4373 86.9897 32.224C87.4217 32.0107 87.9177 31.904 88.4777 31.904C89.0164 31.904 89.483 32.0027 89.8777 32.2C90.2724 32.3973 90.6164 32.6907 90.9097 33.08V28.36H91.6697ZM100.034 35.216C100.034 34.7893 99.9729 34.408 99.8502 34.072C99.7329 33.7307 99.5649 33.4427 99.3462 33.208C99.1275 32.9733 98.8662 32.7947 98.5622 32.672C98.2635 32.544 97.9329 32.48 97.5702 32.48C97.1595 32.48 96.7915 32.544 96.4662 32.672C96.1409 32.8 95.8582 32.984 95.6182 33.224C95.3835 33.464 95.1942 33.752 95.0502 34.088C94.9062 34.424 94.8102 34.8 94.7622 35.216H100.034ZM94.7222 35.704V35.856C94.7222 36.4533 94.7915 36.9787 94.9302 37.432C95.0689 37.8853 95.2662 38.2667 95.5222 38.576C95.7782 38.88 96.0875 39.1093 96.4502 39.264C96.8129 39.4187 97.2182 39.496 97.6662 39.496C98.0662 39.496 98.4129 39.4533 98.7062 39.368C98.9995 39.2773 99.2449 39.1787 99.4422 39.072C99.6449 38.96 99.8049 38.8613 99.9222 38.776C100.04 38.6853 100.125 38.64 100.178 38.64C100.248 38.64 100.301 38.6667 100.338 38.72L100.546 38.976C100.418 39.136 100.248 39.2853 100.034 39.424C99.8262 39.5627 99.5915 39.6827 99.3302 39.784C99.0742 39.88 98.7969 39.9573 98.4982 40.016C98.2049 40.0747 97.9089 40.104 97.6102 40.104C97.0662 40.104 96.5702 40.0107 96.1222 39.824C95.6742 39.632 95.2902 39.3547 94.9702 38.992C94.6502 38.6293 94.4022 38.1867 94.2262 37.664C94.0555 37.136 93.9702 36.5333 93.9702 35.856C93.9702 35.2853 94.0502 34.76 94.2102 34.28C94.3755 33.7947 94.6102 33.3787 94.9142 33.032C95.2235 32.68 95.5995 32.4053 96.0422 32.208C96.4902 32.0107 96.9969 31.912 97.5622 31.912C98.0102 31.912 98.4262 31.9893 98.8102 32.144C99.1942 32.2987 99.5275 32.5253 99.8102 32.824C100.093 33.1173 100.314 33.48 100.474 33.912C100.64 34.344 100.722 34.84 100.722 35.4C100.722 35.5173 100.706 35.5973 100.674 35.64C100.642 35.6827 100.589 35.704 100.514 35.704H94.7222ZM103.682 33.96C103.805 33.6347 103.943 33.3467 104.098 33.096C104.258 32.84 104.439 32.624 104.642 32.448C104.85 32.272 105.079 32.1387 105.33 32.048C105.586 31.952 105.869 31.904 106.178 31.904C106.343 31.904 106.506 31.92 106.666 31.952C106.826 31.9787 106.967 32.0293 107.09 32.104L107.026 32.632C106.999 32.7173 106.949 32.76 106.874 32.76C106.81 32.76 106.711 32.7413 106.578 32.704C106.45 32.6667 106.279 32.648 106.066 32.648C105.757 32.648 105.482 32.696 105.242 32.792C105.007 32.8827 104.794 33.0213 104.602 33.208C104.415 33.3947 104.25 33.6267 104.106 33.904C103.967 34.176 103.839 34.4907 103.722 34.848V40H102.954V32.04H103.362C103.453 32.04 103.517 32.0587 103.554 32.096C103.591 32.1333 103.615 32.1973 103.626 32.288L103.682 33.96Z" fill="#464F53"/>
<path d="M27.7169 27.547C28.4887 28.8697 30.3999 28.8697 31.1717 27.547L41.4058 10.008C42.1838 8.67465 41.222 7 39.6783 7H19.2102C17.6665 7 16.7048 8.67465 17.4828 10.008L27.7169 27.547ZM15.6106 20.453C14.8388 19.1303 12.9275 19.1303 12.1557 20.453L1.92165 37.992C1.14366 39.3254 2.10539 41 3.64908 41H24.1172C25.6609 41 26.6226 39.3254 25.8446 37.992L15.6106 20.453ZM46.7329 20.453C45.961 19.1303 44.0498 19.1303 43.278 20.453L33.0439 37.992C32.2659 39.3254 33.2277 41 34.7714 41H55.2395C56.7832 41 57.7449 39.3254 56.9669 37.992L46.7329 20.453Z" fill="#006C98"/>
</svg>
