<svg width="18" height="18" viewBox="0 0 18 18" fill="none" xmlns="http://www.w3.org/2000/svg">
<path d="M5.25 0C2.35875 0 0 2.35875 0 5.25C0 6.02325 0.237 6.741 0.53925 7.40625C0.435289 7.93127 0.380303 8.46481 0.375 9C0.375 13.755 4.245 17.625 9 17.625C9.5475 17.625 10.0755 17.5575 10.5938 17.4608C11.259 17.763 11.9768 18 12.75 18C15.6412 18 18 15.6412 18 12.75C18 11.9768 17.763 11.259 17.4608 10.5938C17.5583 10.0755 17.625 9.5475 17.625 9C17.625 4.245 13.755 0.375 9 0.375C8.4525 0.375 7.9245 0.4425 7.40625 0.53925C6.741 0.237 6.02325 0 5.25 0ZM5.25 1.5C5.89725 1.5 6.501 1.6575 7.03125 1.9455C7.1894 2.02963 7.37244 2.05437 7.54725 2.01525C8.02549 1.91935 8.51225 1.87235 9 1.875C12.9435 1.875 16.125 5.0565 16.125 9C16.125 9.501 16.0807 9.98175 15.984 10.4535C15.9453 10.6282 15.9703 10.8109 16.0545 10.9688C16.3417 11.499 16.5 12.1027 16.5 12.75C16.5 14.8298 14.8298 16.5 12.75 16.5C12.1027 16.5 11.499 16.3425 10.9688 16.0545C10.8106 15.9704 10.6276 15.9456 10.4528 15.9847C9.97451 16.0807 9.48775 16.1276 9 16.125C8.06394 16.1264 7.13681 15.943 6.27175 15.5855C5.40668 15.2279 4.62067 14.7031 3.95878 14.0412C3.29689 13.3793 2.77212 12.5933 2.41454 11.7283C2.05697 10.8632 1.87362 9.93606 1.875 9C1.875 8.499 1.91925 8.01825 2.016 7.5465C2.0547 7.37184 2.0297 7.1891 1.9455 7.03125C1.65038 6.4841 1.49721 5.87166 1.5 5.25C1.5 3.17025 3.17025 1.5 5.25 1.5ZM8.883 3.867C7.02825 3.867 5.03925 4.65225 5.03925 6.75C5.03925 7.761 5.39625 8.82975 7.383 9.3285L9.867 9.9375C10.614 10.122 10.8045 10.5442 10.8045 10.9222C10.8045 11.5522 10.1805 12.1642 9.04725 12.1642C6.83175 12.1642 7.116 10.4767 5.9295 10.4767C5.397 10.4767 5.01525 10.8428 5.01525 11.367C5.01525 12.39 6.27225 13.7347 9.04725 13.7347C11.6865 13.7347 12.9847 12.4598 12.9847 10.7572C12.9847 9.65625 12.4777 8.50725 10.4767 8.0625L8.64825 7.64025C7.95375 7.48275 7.14825 7.28625 7.14825 6.633C7.14825 5.97675 7.70475 5.508 8.71875 5.508C10.761 5.508 10.5877 6.91425 11.6017 6.91425C12.1342 6.91425 12.5858 6.60975 12.5858 6.0705C12.5858 4.8105 10.5907 3.867 8.883 3.867Z" fill="#9191A1"/>
</svg>
