<svg width="15" height="16" viewBox="0 0 15 16" fill="none" xmlns="http://www.w3.org/2000/svg">
<path fill-rule="evenodd" clip-rule="evenodd" d="M0.333496 8.00016C0.333496 4.04216 3.54216 0.833496 7.50016 0.833496C11.4582 0.833496 14.6668 4.04216 14.6668 8.00016C14.6668 11.9582 11.4582 15.1668 7.50016 15.1668C3.54216 15.1668 0.333496 11.9582 0.333496 8.00016ZM7.50016 1.8335C5.86466 1.8335 4.29615 2.4832 3.13967 3.63967C1.9832 4.79615 1.3335 6.36466 1.3335 8.00016C1.3335 9.63566 1.9832 11.2042 3.13967 12.3607C4.29615 13.5171 5.86466 14.1668 7.50016 14.1668C9.13566 14.1668 10.7042 13.5171 11.8607 12.3607C13.0171 11.2042 13.6668 9.63566 13.6668 8.00016C13.6668 6.36466 13.0171 4.79615 11.8607 3.63967C10.7042 2.4832 9.13566 1.8335 7.50016 1.8335Z" fill="#757589"/>
<path fill-rule="evenodd" clip-rule="evenodd" d="M7.69083 5.8335C6.3555 5.8335 5.3335 6.8355 5.3335 8.00017C5.3335 9.16483 6.3555 10.1668 7.69083 10.1668C8.0315 10.1668 8.35416 10.1002 8.64416 9.98217C8.70496 9.95735 8.77006 9.94475 8.83573 9.94508C8.9014 9.94542 8.96637 9.95869 9.02691 9.98413C9.08745 10.0096 9.14239 10.0467 9.18859 10.0934C9.23479 10.14 9.27134 10.1954 9.29616 10.2562C9.32098 10.317 9.33358 10.3821 9.33325 10.4477C9.33291 10.5134 9.31964 10.5784 9.2942 10.6389C9.26875 10.6995 9.23163 10.7544 9.18496 10.8006C9.13828 10.8468 9.08296 10.8833 9.02216 10.9082C8.5993 11.0797 8.14716 11.1676 7.69083 11.1668C5.8695 11.1668 4.3335 9.78083 4.3335 8.00017C4.3335 6.2195 5.8695 4.8335 7.69083 4.8335C8.14716 4.83278 8.5993 4.92062 9.02216 5.09217C9.14505 5.1422 9.24302 5.23901 9.29453 5.36128C9.34604 5.48356 9.34687 5.62128 9.29683 5.74417C9.24679 5.86705 9.14999 5.96502 9.02772 6.01653C8.90544 6.06804 8.76771 6.06887 8.64483 6.01883C8.34185 5.89581 8.01784 5.83286 7.69083 5.8335Z" fill="#757589"/>
</svg>
