<svg width="59" height="34" viewBox="0 0 59 34" fill="none" xmlns="http://www.w3.org/2000/svg">
<path d="M27.5503 20.547C28.3222 21.8697 30.2334 21.8697 31.0052 20.547L41.2393 3.00796C42.0173 1.67465 41.0555 0 39.5118 0H19.0437C17.5 0 16.5383 1.67465 17.3163 3.00796L27.5503 20.547ZM15.4441 13.453C14.6723 12.1303 12.761 12.1303 11.9892 13.453L1.75515 30.992C0.977158 32.3254 1.93889 34 3.48258 34H23.9507C25.4944 34 26.4561 32.3254 25.6781 30.992L15.4441 13.453ZM46.5663 13.453C45.7945 12.1303 43.8833 12.1303 43.1115 13.453L32.8774 30.992C32.0994 32.3254 33.0612 34 34.6049 34H55.073C56.6167 34 57.5784 32.3254 56.8004 30.992L46.5663 13.453Z" fill="#9191A1"/>
</svg>
