<svg width="54" height="54" viewBox="0 0 54 54" fill="none" xmlns="http://www.w3.org/2000/svg">
<path d="M18.8075 41.6108H35.1705C35.939 41.6108 36.4134 41.1364 36.4134 40.3678V36.7518C36.4134 31.2823 44.3688 27.7569 44.3688 17.9935C44.3688 7.71038 37.4076 0.839844 26.9885 0.839844C16.5703 0.839844 9.63135 7.71038 9.63135 17.9945C9.63135 27.7569 17.5645 31.2823 17.5645 36.7518V40.3678C17.5645 41.1364 18.0611 41.6108 18.8075 41.6108ZM20.9318 36.7981C20.9318 30.1541 13.044 26.6056 13.044 18.0176C13.044 9.74502 18.6272 4.25341 26.9885 4.25341C35.3508 4.25341 40.9562 9.74502 40.9562 18.0176C40.9562 26.6056 33.0461 30.1541 33.0461 36.7981V38.1992H20.9318V36.7981ZM19.6435 47.7138H34.3344C35.4867 47.7138 36.4134 46.7649 36.4134 45.5895C36.4134 44.415 35.4867 43.4651 34.3335 43.4651H19.6435C18.4912 43.4651 17.5645 44.415 17.5645 45.5895C17.5645 46.7659 18.4902 47.7138 19.6435 47.7138ZM26.9885 53.161C30.108 53.161 32.2998 51.7368 32.5254 49.545H21.4516C21.655 51.7368 23.8468 53.161 26.9885 53.161Z" fill="#BABAC4"/>
</svg>
