<svg width="37" height="40" viewBox="0 0 37 40" fill="none" xmlns="http://www.w3.org/2000/svg">
<path d="M24.8953 0.790807C25.249 0.879146 25.5531 1.10432 25.7408 1.41682C25.9285 1.72933 25.9844 2.10358 25.8963 2.45731L25.2088 5.20731C25.1685 5.38608 25.093 5.55502 24.9865 5.70417C24.8801 5.85333 24.7449 5.97971 24.5889 6.07588C24.4329 6.17205 24.2593 6.23607 24.0782 6.26417C23.8971 6.29228 23.7123 6.28391 23.5345 6.23955C23.3567 6.19519 23.1895 6.11575 23.0429 6.00587C22.8962 5.896 22.773 5.75792 22.6805 5.59976C22.588 5.44159 22.528 5.26652 22.5041 5.08484C22.4802 4.90316 22.4928 4.71853 22.5413 4.54181L23.2288 1.79181C23.3171 1.43813 23.5423 1.134 23.8548 0.946295C24.1673 0.758586 24.5416 0.702659 24.8953 0.790807ZM33.0985 3.90381C33.3563 4.16166 33.5011 4.51133 33.5011 4.87593C33.5011 5.24053 33.3563 5.59021 33.0985 5.84806L30.3485 8.59806C30.2217 8.72938 30.07 8.83413 29.9022 8.9062C29.7345 8.97826 29.554 9.01619 29.3715 9.01778C29.1889 9.01936 29.0078 8.98457 28.8388 8.91544C28.6699 8.8463 28.5163 8.7442 28.3872 8.6151C28.2581 8.486 28.156 8.33248 28.0869 8.16349C28.0178 7.99451 27.983 7.81345 27.9846 7.63088C27.9861 7.44831 28.0241 7.26788 28.0961 7.10013C28.1682 6.93237 28.273 6.78065 28.4043 6.65381L31.1543 3.90381C31.4121 3.64604 31.7618 3.50123 32.1264 3.50123C32.491 3.50123 32.8407 3.64604 33.0985 3.90381ZM12.281 33.8403C12.9712 34.9893 14.0571 35.8467 15.3349 36.2515C16.6126 36.6563 17.9942 36.5806 19.22 36.0386C20.4459 35.4966 21.4316 34.5256 21.992 33.3081C22.5525 32.0905 22.649 30.7103 22.2635 29.4266L12.281 33.8403ZM9.75103 34.9568L7.00653 36.1723C6.29644 36.486 5.50811 36.5777 4.74498 36.4354C3.98185 36.2931 3.27957 35.9234 2.73028 35.3748L1.63028 34.2776C1.08232 33.732 0.712143 33.0335 0.568344 32.2738C0.424545 31.5141 0.513849 30.7286 0.824531 30.0206L11.4698 5.79856C11.722 5.22657 12.1097 4.7246 12.5994 4.33604C13.0891 3.94747 13.6661 3.684 14.2805 3.56838C14.8948 3.45277 15.5281 3.48849 16.1255 3.67247C16.723 3.85644 17.2666 4.18313 17.7095 4.62431L32.3725 19.2433C32.8143 19.6839 33.1419 20.2256 33.327 20.8214C33.5121 21.4172 33.5491 22.0491 33.4347 22.6625C33.3204 23.2758 33.0582 23.852 32.6709 24.3411C32.2836 24.8302 31.7828 25.2175 31.212 25.4693L24.7908 28.3073C25.4695 30.2635 25.3879 32.4034 24.562 34.3022C23.7362 36.201 22.2265 37.7199 20.3327 38.5572C18.4389 39.3945 16.2995 39.489 14.3392 38.822C12.379 38.1551 10.7412 36.7754 9.75103 34.9568ZM34.875 11.7496H32.125C31.7604 11.7496 31.4106 11.8944 31.1528 12.1523C30.8949 12.4102 30.75 12.7599 30.75 13.1246C30.75 13.4892 30.8949 13.839 31.1528 14.0968C31.4106 14.3547 31.7604 14.4996 32.125 14.4996H34.875C35.2397 14.4996 35.5894 14.3547 35.8473 14.0968C36.1052 13.839 36.25 13.4892 36.25 13.1246C36.25 12.7599 36.1052 12.4102 35.8473 12.1523C35.5894 11.8944 35.2397 11.7496 34.875 11.7496ZM13.9888 6.90406L3.34078 31.1261C3.25274 31.3264 3.22743 31.5487 3.26817 31.7637C3.30892 31.9787 3.4138 32.1763 3.56903 32.3306L4.67178 33.4306C4.82892 33.5867 5.02956 33.6918 5.24742 33.7321C5.46529 33.7723 5.69022 33.7458 5.89278 33.6561L30.0983 22.9531C30.2595 22.8817 30.4009 22.7723 30.5103 22.6341C30.6197 22.4959 30.6939 22.3331 30.7264 22.1599C30.7589 21.9866 30.7487 21.8081 30.6968 21.6397C30.6448 21.4712 30.5527 21.3179 30.4283 21.1931L15.7708 6.56856C15.6446 6.4431 15.4898 6.35013 15.3198 6.29762C15.1498 6.24512 14.9696 6.23464 14.7946 6.26709C14.6197 6.29954 14.4552 6.37395 14.3153 6.48393C14.1754 6.59392 14.0643 6.73619 13.9915 6.89856" fill="#BABAC4"/>
</svg>
