<svg width="30" height="44" viewBox="0 0 30 44" fill="none" xmlns="http://www.w3.org/2000/svg">
<path d="M8.32451 33.9054H21.6573C22.2835 33.9054 22.6701 33.5188 22.6701 32.8926V29.9461C22.6701 25.4896 29.1522 22.617 29.1522 14.6616C29.1522 6.28278 23.4802 0.68457 14.9905 0.68457C6.50166 0.68457 0.847656 6.28278 0.847656 14.6624C0.847656 22.617 7.31173 25.4896 7.31173 29.9461V32.8926C7.31173 33.5188 7.71637 33.9054 8.32451 33.9054ZM10.0554 29.9839C10.0554 24.5703 3.6283 21.6789 3.6283 14.6813C3.6283 7.94064 8.17759 3.466 14.9905 3.466C21.8042 3.466 26.3716 7.94064 26.3716 14.6813C26.3716 21.6789 19.9264 24.5703 19.9264 29.9839V31.1255H10.0554V29.9839ZM9.00573 38.8781H20.9761C21.915 38.8781 22.6701 38.105 22.6701 37.1472C22.6701 36.1902 21.915 35.4163 20.9753 35.4163H9.00573C8.0668 35.4163 7.31173 36.1902 7.31173 37.1472C7.31173 38.1058 8.06601 38.8781 9.00573 38.8781ZM14.9905 43.3166C17.5323 43.3166 19.3182 42.1561 19.5021 40.3702H10.4789C10.6447 42.1561 12.4307 43.3166 14.9905 43.3166Z" fill="#BABAC4"/>
</svg>
