<svg width="44" height="44" viewBox="0 0 44 44" fill="none" xmlns="http://www.w3.org/2000/svg">
<path fill-rule="evenodd" clip-rule="evenodd" d="M22.0001 3.66602C22.4491 3.66607 22.8825 3.83094 23.2181 4.12933C23.5537 4.42772 23.7681 4.83889 23.8206 5.28485L23.8334 5.49935V9.47768C24.7157 9.78953 25.5038 10.3212 26.1233 11.0225C26.7428 11.7238 27.1732 12.5716 27.3738 13.4855C27.5744 14.3995 27.5386 15.3496 27.2697 16.2459C27.0008 17.1421 26.5078 17.955 25.8373 18.6077L25.5733 18.8478L28.9356 27.5928C30.4405 26.7828 31.7929 25.717 32.9323 24.4432C33.0921 24.2613 33.2865 24.1128 33.504 24.0064C33.7216 23.9 33.9581 23.8378 34.1998 23.8233C34.4416 23.8088 34.6838 23.8424 34.9125 23.922C35.1412 24.0017 35.3519 24.1259 35.5323 24.2875C35.7128 24.449 35.8594 24.6447 35.9638 24.8632C36.0681 25.0818 36.1282 25.3188 36.1404 25.5607C36.1527 25.8026 36.1169 26.0445 36.0351 26.2725C35.9533 26.5004 35.8271 26.7099 35.6639 26.8888C34.3084 28.4037 32.7114 29.6836 30.9376 30.6765L30.2593 31.0377L32.8773 37.8412C33.0426 38.2771 33.0356 38.7596 32.8577 39.1906C32.6799 39.6216 32.3445 39.9686 31.9199 40.1611C31.4952 40.3535 31.0132 40.377 30.5719 40.2267C30.1306 40.0763 29.7631 39.7635 29.5443 39.3518L29.4563 39.1575L26.8383 32.354C23.8949 33.1551 20.7987 33.2131 17.8274 32.5227L17.1619 32.354L14.5439 39.1575C14.3757 39.5937 14.0473 39.9492 13.6257 40.1512C13.2041 40.3533 12.7213 40.3866 12.2759 40.2445C11.8306 40.1024 11.4563 39.7955 11.2298 39.3866C11.0032 38.9777 10.9413 38.4977 11.0569 38.0447L11.1229 37.8412L18.4269 18.8478C17.7143 18.2394 17.169 17.4589 16.8427 16.5805C16.5164 15.7021 16.4199 14.7549 16.5624 13.8287C16.7049 12.9026 17.0817 12.0282 17.657 11.2885C18.2323 10.5489 18.987 9.96845 19.8496 9.60235L20.1668 9.47768V5.49935C20.1668 5.01312 20.3599 4.5468 20.7037 4.20299C21.0475 3.85917 21.5139 3.66602 22.0001 3.66602ZM25.5146 28.911L22.1504 20.1642L22.0001 20.166L21.8498 20.1642L18.4856 28.9092C19.6358 29.1914 20.8158 29.3336 22.0001 29.3327C23.2101 29.3327 24.3889 29.186 25.5146 28.911ZM22.0001 12.8327C21.5139 12.8327 21.0475 13.0258 20.7037 13.3697C20.3599 13.7135 20.1668 14.1798 20.1668 14.666C20.1668 15.1522 20.3599 15.6186 20.7037 15.9624C21.0475 16.3062 21.5139 16.4993 22.0001 16.4993C22.4863 16.4993 22.9526 16.3062 23.2965 15.9624C23.6403 15.6186 23.8334 15.1522 23.8334 14.666C23.8334 14.1798 23.6403 13.7135 23.2965 13.3697C22.9526 13.0258 22.4863 12.8327 22.0001 12.8327Z" fill="#BABAC4"/>
</svg>
