<svg width="38" height="36" viewBox="0 0 38 36" fill="none" xmlns="http://www.w3.org/2000/svg">
<path d="M24.1136 13.2863C25.0514 13.2863 25.9507 13.6588 26.6138 14.3219C27.2768 14.9849 27.6493 15.8843 27.6493 16.822V26.6418C27.6493 28.9345 26.7386 31.1332 25.1175 32.7544C23.4963 34.3755 21.2976 35.2863 19.0049 35.2863C16.7123 35.2863 14.5135 34.3755 12.8924 32.7544C11.2712 31.1332 10.3605 28.9345 10.3605 26.6418V16.822C10.3605 15.8843 10.733 14.9849 11.3961 14.3219C12.0592 13.6588 12.9585 13.2863 13.8962 13.2863H24.1136ZM24.1136 15.6434H13.8962C13.5836 15.6434 13.2839 15.7676 13.0628 15.9886C12.8418 16.2096 12.7176 16.5094 12.7176 16.822V26.6418C12.7176 28.3093 13.38 29.9085 14.5591 31.0876C15.7382 32.2667 17.3374 32.9291 19.0049 32.9291C20.6724 32.9291 22.2716 32.2667 23.4507 31.0876C24.6298 29.9085 25.2922 28.3093 25.2922 26.6418V16.822C25.2922 16.5094 25.168 16.2096 24.947 15.9886C24.726 15.7676 24.4262 15.6434 24.1136 15.6434ZM3.67878 13.2863H10.2096C9.57874 13.9431 9.13541 14.7571 8.92578 15.6434H3.67878C3.3662 15.6434 3.06643 15.7676 2.84541 15.9886C2.62438 16.2096 2.50021 16.5094 2.50021 16.822V25.0704C2.5 25.8589 2.69749 26.6348 3.07461 27.3273C3.45173 28.0197 3.99645 28.6065 4.65894 29.034C5.32143 29.4616 6.08055 29.7162 6.86685 29.7746C7.65316 29.833 8.44155 29.6933 9.15992 29.3683C9.36892 30.1383 9.66907 30.8706 10.0462 31.5557C8.96957 32.0258 7.79281 32.2203 6.62217 32.1216C5.45154 32.023 4.32392 31.6343 3.34112 30.9907C2.35833 30.3471 1.55132 29.4688 0.992978 28.4352C0.434634 27.4016 0.142538 26.2452 0.143067 25.0704V16.822C0.143067 15.8843 0.515579 14.9849 1.17865 14.3219C1.84173 13.6588 2.74105 13.2863 3.67878 13.2863ZM34.3216 13.2863C35.2594 13.2863 36.1587 13.6588 36.8218 14.3219C37.4848 14.9849 37.8573 15.8843 37.8573 16.822V25.072C37.8578 26.2461 37.5659 27.4019 37.008 28.4349C36.4501 29.468 35.6438 30.346 34.6617 30.9895C33.6797 31.633 32.5528 32.0219 31.3829 32.121C30.213 32.2201 29.0368 32.0264 27.9605 31.5573L28.0485 31.397C28.3848 30.759 28.6566 30.0817 28.8515 29.3714C29.5695 29.6945 30.3569 29.8326 31.142 29.7731C31.927 29.7136 32.6847 29.4585 33.3458 29.031C34.007 28.6035 34.5505 28.0172 34.9268 27.3256C35.3031 26.6341 35.5003 25.8593 35.5002 25.072V16.822C35.5002 16.5097 35.3763 16.2101 35.1556 15.9892C34.9349 15.7682 34.6355 15.6438 34.3232 15.6434H29.0856C28.8756 14.7569 28.4317 13.9429 27.8002 13.2863H34.3216ZM19.0002 0.714844C19.7225 0.714844 20.4377 0.857105 21.105 1.13351C21.7723 1.40991 22.3786 1.81503 22.8893 2.32576C23.4 2.83648 23.8051 3.44279 24.0815 4.11008C24.3579 4.77737 24.5002 5.49257 24.5002 6.21484C24.5002 6.93711 24.3579 7.65231 24.0815 8.3196C23.8051 8.98689 23.4 9.59321 22.8893 10.1039C22.3786 10.6147 21.7723 11.0198 21.105 11.2962C20.4377 11.5726 19.7225 11.7148 19.0002 11.7148C17.5415 11.7148 16.1426 11.1354 15.1111 10.1039C14.0797 9.07248 13.5002 7.67353 13.5002 6.21484C13.5002 4.75615 14.0797 3.35721 15.1111 2.32576C16.1426 1.29431 17.5415 0.714844 19.0002 0.714844ZM31.5763 2.28627C32.1954 2.28627 32.8085 2.40821 33.3804 2.64513C33.9524 2.88204 34.4721 3.22929 34.9099 3.66705C35.3476 4.10482 35.6949 4.62452 35.9318 5.19648C36.1687 5.76844 36.2906 6.38147 36.2906 7.00056C36.2906 7.61965 36.1687 8.23267 35.9318 8.80464C35.6949 9.3766 35.3476 9.8963 34.9099 10.3341C34.4721 10.7718 33.9524 11.1191 33.3804 11.356C32.8085 11.5929 32.1954 11.7148 31.5763 11.7148C30.326 11.7148 29.1269 11.2182 28.2428 10.3341C27.3587 9.44996 26.8621 8.25086 26.8621 7.00056C26.8621 5.75025 27.3587 4.55115 28.2428 3.66705C29.1269 2.78295 30.326 2.28627 31.5763 2.28627ZM6.42407 2.28627C7.04316 2.28627 7.65618 2.40821 8.22815 2.64513C8.80011 2.88204 9.31981 3.22929 9.75757 3.66705C10.1953 4.10482 10.5426 4.62452 10.7795 5.19648C11.0164 5.76844 11.1384 6.38147 11.1384 7.00056C11.1384 7.61965 11.0164 8.23267 10.7795 8.80464C10.5426 9.3766 10.1953 9.8963 9.75757 10.3341C9.31981 10.7718 8.80011 11.1191 8.22815 11.356C7.65618 11.5929 7.04316 11.7148 6.42407 11.7148C5.17376 11.7148 3.97466 11.2182 3.09056 10.3341C2.20646 9.44996 1.70978 8.25086 1.70978 7.00056C1.70978 5.75025 2.20646 4.55115 3.09056 3.66705C3.97466 2.78295 5.17376 2.28627 6.42407 2.28627ZM19.0002 3.07199C18.1667 3.07199 17.3673 3.40311 16.7779 3.99251C16.1885 4.58191 15.8574 5.38131 15.8574 6.21484C15.8574 7.04838 16.1885 7.84778 16.7779 8.43718C17.3673 9.02658 18.1667 9.3577 19.0002 9.3577C19.8337 9.3577 20.6331 9.02658 21.2225 8.43718C21.8119 7.84778 22.1431 7.04838 22.1431 6.21484C22.1431 5.38131 21.8119 4.58191 21.2225 3.99251C20.6331 3.40311 19.8337 3.07199 19.0002 3.07199ZM31.5763 4.64341C31.2668 4.64341 30.9603 4.70438 30.6743 4.82284C30.3883 4.9413 30.1285 5.11492 29.9096 5.33381C29.6907 5.55269 29.5171 5.81254 29.3986 6.09852C29.2802 6.3845 29.2192 6.69101 29.2192 7.00056C29.2192 7.3101 29.2802 7.61662 29.3986 7.9026C29.5171 8.18858 29.6907 8.44843 29.9096 8.66731C30.1285 8.88619 30.3883 9.05982 30.6743 9.17827C30.9603 9.29673 31.2668 9.3577 31.5763 9.3577C32.2015 9.3577 32.801 9.10936 33.2431 8.66731C33.6851 8.22526 33.9335 7.62571 33.9335 7.00056C33.9335 6.3754 33.6851 5.77586 33.2431 5.33381C32.801 4.89176 32.2015 4.64341 31.5763 4.64341ZM6.42407 4.64341C6.11452 4.64341 5.80801 4.70438 5.52203 4.82284C5.23605 4.9413 4.9762 5.11492 4.75732 5.33381C4.53843 5.55269 4.36481 5.81254 4.24635 6.09852C4.12789 6.3845 4.06692 6.69101 4.06692 7.00056C4.06692 7.3101 4.12789 7.61662 4.24635 7.9026C4.36481 8.18858 4.53843 8.44843 4.75732 8.66731C4.9762 8.88619 5.23605 9.05982 5.52203 9.17827C5.80801 9.29673 6.11452 9.3577 6.42407 9.3577C7.04922 9.3577 7.64877 9.10936 8.09082 8.66731C8.53287 8.22526 8.78121 7.62571 8.78121 7.00056C8.78121 6.3754 8.53287 5.77586 8.09082 5.33381C7.64877 4.89176 7.04922 4.64341 6.42407 4.64341Z" fill="#BABAC4"/>
</svg>
