<svg width="44" height="39" viewBox="0 0 44 39" fill="none" xmlns="http://www.w3.org/2000/svg">
<path d="M43.2713 11.2863L22.6463 0.286334C22.4474 0.180404 22.2254 0.125 22.0001 0.125C21.7747 0.125 21.5527 0.180404 21.3538 0.286334L0.728809 11.2863C0.508816 11.4036 0.324835 11.5784 0.196546 11.7922C0.0682574 12.0059 0.000488281 12.2505 0.000488281 12.4998C0.000488281 12.7491 0.0682574 12.9936 0.196546 13.2074C0.324835 13.4211 0.508816 13.596 0.728809 13.7132L5.50006 16.2587V24.5809C5.49863 25.2563 5.7472 25.9083 6.19787 26.4113C8.44943 28.919 13.494 33.1248 22.0001 33.1248C24.8204 33.1481 27.6197 32.6372 30.2501 31.6192V37.2498C30.2501 37.6144 30.3949 37.9642 30.6528 38.222C30.9106 38.4799 31.2604 38.6248 31.6251 38.6248C31.9897 38.6248 32.3395 38.4799 32.5973 38.222C32.8552 37.9642 33.0001 37.6144 33.0001 37.2498V30.2906C34.7931 29.2555 36.4133 27.9466 37.8022 26.4113C38.2529 25.9083 38.5015 25.2563 38.5001 24.5809V16.2587L43.2713 13.7132C43.4913 13.596 43.6753 13.4211 43.8036 13.2074C43.9319 12.9936 43.9996 12.7491 43.9996 12.4998C43.9996 12.2505 43.9319 12.0059 43.8036 11.7922C43.6753 11.5784 43.4913 11.4036 43.2713 11.2863ZM22.0001 30.3748C14.563 30.3748 10.1888 26.7413 8.25006 24.5809V17.7248L21.3538 24.7132C21.5527 24.8191 21.7747 24.8745 22.0001 24.8745C22.2254 24.8745 22.4474 24.8191 22.6463 24.7132L30.2501 20.6587V28.6234C28.0844 29.634 25.3551 30.3748 22.0001 30.3748ZM35.7501 24.574C34.9258 25.4886 34.0036 26.3099 33.0001 27.0232V19.1909L35.7501 17.7248V24.574ZM32.3126 16.4426L32.2747 16.4202L22.6497 11.2863C22.3286 11.1223 21.9559 11.091 21.6119 11.1991C21.2679 11.3073 20.9802 11.5462 20.8107 11.8645C20.6412 12.1828 20.6035 12.5549 20.7057 12.9007C20.8079 13.2465 21.0419 13.5383 21.3572 13.7132L29.3907 17.9998L22.0001 21.9409L4.29693 12.4998L22.0001 3.05868L39.7032 12.4998L32.3126 16.4426Z" fill="#BABAC4"/>
</svg>
