<svg width="40" height="38" viewBox="0 0 40 38" fill="none" xmlns="http://www.w3.org/2000/svg">
<path d="M39.1126 14.7214C38.9461 14.2081 38.6322 13.7552 38.2102 13.419C37.7881 13.0829 37.2765 12.8783 36.739 12.8308L26.5313 11.9508L22.5301 2.43575C22.3218 1.93648 21.9704 1.51001 21.5202 1.21004C21.07 0.910064 20.5411 0.75 20.0001 0.75C19.4591 0.75 18.9302 0.910064 18.48 1.21004C18.0298 1.51001 17.6784 1.93648 17.4701 2.43575L13.4809 11.9508L3.26118 12.8359C2.72155 12.8813 2.20733 13.0849 1.78298 13.4213C1.35864 13.7578 1.04307 14.212 0.875851 14.7271C0.70863 15.2421 0.697201 15.7951 0.842996 16.3166C0.988791 16.8382 1.28532 17.305 1.6954 17.6587L9.44868 24.434L7.12493 34.4956C7.00206 35.0221 7.03712 35.5732 7.22573 36.0799C7.41435 36.5866 7.74814 37.0265 8.18539 37.3445C8.62264 37.6625 9.14393 37.8446 9.6841 37.868C10.2243 37.8914 10.7593 37.755 11.2224 37.4759L19.9881 32.1478L28.7726 37.4759C29.2357 37.755 29.7707 37.8914 30.3109 37.868C30.8511 37.8446 31.3724 37.6625 31.8096 37.3445C32.2469 37.0265 32.5807 36.5866 32.7693 36.0799C32.9579 35.5732 32.993 35.0221 32.8701 34.4956L30.5481 24.4237L38.2996 17.6587C38.7096 17.3038 39.0056 16.8356 39.1502 16.313C39.2949 15.7903 39.2818 15.2366 39.1126 14.7214ZM36.4967 15.5808L28.7451 22.3458C28.3678 22.6739 28.0872 23.0987 27.9333 23.5745C27.7795 24.0503 27.7583 24.559 27.872 25.0459L30.2009 35.1247L21.4232 29.7965C20.995 29.5357 20.5032 29.3978 20.0018 29.3978C19.5004 29.3978 19.0087 29.5357 18.5804 29.7965L9.81477 35.1247L12.1282 25.0528C12.2419 24.5659 12.2207 24.0571 12.0668 23.5814C11.913 23.1056 11.6324 22.6808 11.2551 22.3526L3.50009 15.5911C3.49946 15.5859 3.49946 15.5807 3.50009 15.5756L13.7163 14.6922C14.2151 14.6482 14.6924 14.4689 15.0968 14.1736C15.5012 13.8782 15.8172 13.4781 16.0109 13.0164L20.0001 3.51341L23.9876 13.0164C24.1812 13.4781 24.4973 13.8782 24.9017 14.1736C25.306 14.4689 25.7833 14.6482 26.2821 14.6922L36.5001 15.5756V15.5876L36.4967 15.5808Z" fill="#BABAC4"/>
</svg>
