<svg width="17" height="16" viewBox="0 0 17 16" fill="none" xmlns="http://www.w3.org/2000/svg">
<path fill-rule="evenodd" clip-rule="evenodd" d="M1.3335 8.00065C1.3335 4.04265 4.54216 0.833984 8.50016 0.833984C12.4582 0.833984 15.6668 4.04265 15.6668 8.00065C15.6668 11.9587 12.4582 15.1673 8.50016 15.1673C4.54216 15.1673 1.3335 11.9587 1.3335 8.00065ZM8.50016 1.83398C6.86466 1.83398 5.29615 2.48368 4.13967 3.64016C2.9832 4.79663 2.3335 6.36515 2.3335 8.00065C2.3335 9.63615 2.9832 11.2047 4.13967 12.3611C5.29615 13.5176 6.86466 14.1673 8.50016 14.1673C10.1357 14.1673 11.7042 13.5176 12.8607 12.3611C14.0171 11.2047 14.6668 9.63615 14.6668 8.00065C14.6668 6.36515 14.0171 4.79663 12.8607 3.64016C11.7042 2.48368 10.1357 1.83398 8.50016 1.83398Z" fill="#757589"/>
<path fill-rule="evenodd" clip-rule="evenodd" d="M8.69083 5.83399C7.3555 5.83399 6.3335 6.83599 6.3335 8.00066C6.3335 9.16532 7.3555 10.1673 8.69083 10.1673C9.0315 10.1673 9.35416 10.1007 9.64416 9.98265C9.70496 9.95784 9.77006 9.94523 9.83573 9.94557C9.9014 9.94591 9.96637 9.95918 10.0269 9.98462C10.0875 10.0101 10.1424 10.0472 10.1886 10.0939C10.2348 10.1405 10.2713 10.1959 10.2962 10.2567C10.321 10.3175 10.3336 10.3826 10.3332 10.4482C10.3329 10.5139 10.3196 10.5789 10.2942 10.6394C10.2688 10.6999 10.2316 10.7549 10.185 10.8011C10.1383 10.8473 10.083 10.8838 10.0222 10.9087C9.5993 11.0802 9.14716 11.168 8.69083 11.1673C6.8695 11.1673 5.3335 9.78132 5.3335 8.00066C5.3335 6.21999 6.8695 4.83399 8.69083 4.83399C9.14716 4.83326 9.5993 4.92111 10.0222 5.09266C10.145 5.14269 10.243 5.2395 10.2945 5.36177C10.346 5.48404 10.3469 5.62177 10.2968 5.74466C10.2468 5.86754 10.15 5.96551 10.0277 6.01702C9.90544 6.06853 9.76771 6.06936 9.64483 6.01932C9.34185 5.8963 9.01784 5.83335 8.69083 5.83399Z" fill="#757589"/>
</svg>
