<svg width="66" height="44" viewBox="0 0 66 44" fill="none" xmlns="http://www.w3.org/2000/svg">
<g filter="url(#filter0_d_698_34322)">
<path d="M30.2725 23.547C31.0443 24.8697 32.9556 24.8697 33.7274 23.547L43.9614 6.00796C44.7394 4.67465 43.7777 3 42.234 3H21.7659C20.2222 3 19.2605 4.67465 20.0385 6.00796L30.2725 23.547ZM18.1662 16.453C17.3944 15.1303 15.4832 15.1303 14.7114 16.453L4.47732 33.992C3.69933 35.3254 4.66105 37 6.20475 37H26.6729C28.2166 37 29.1783 35.3254 28.4003 33.992L18.1662 16.453ZM49.2885 16.453C48.5167 15.1303 46.6055 15.1303 45.8337 16.453L35.5996 33.992C34.8216 35.3254 35.7833 37 37.327 37H57.7951C59.3388 37 60.3006 35.3254 59.5226 33.992L49.2885 16.453Z" fill="#9191A1"/>
</g>
<defs>
<filter id="filter0_d_698_34322" x="0.70166" y="0.5" width="64.5967" height="43" filterUnits="userSpaceOnUse" color-interpolation-filters="sRGB">
<feFlood flood-opacity="0" result="BackgroundImageFix"/>
<feColorMatrix in="SourceAlpha" type="matrix" values="0 0 0 0 0 0 0 0 0 0 0 0 0 0 0 0 0 0 127 0" result="hardAlpha"/>
<feOffset dx="1" dy="2"/>
<feGaussianBlur stdDeviation="2.25"/>
<feComposite in2="hardAlpha" operator="out"/>
<feColorMatrix type="matrix" values="0 0 0 0 0.121569 0 0 0 0 0.137255 0 0 0 0 0.141176 0 0 0 0.2 0"/>
<feBlend mode="normal" in2="BackgroundImageFix" result="effect1_dropShadow_698_34322"/>
<feBlend mode="normal" in="SourceGraphic" in2="effect1_dropShadow_698_34322" result="shape"/>
</filter>
</defs>
</svg>
