<svg width="22" height="22" viewBox="0 0 22 22" fill="none" xmlns="http://www.w3.org/2000/svg">
<rect width="22" height="22" fill="#E6E8E8"/>
<path d="M9.16667 2.75C5.62283 2.75 2.75 5.62283 2.75 9.16667C2.75 12.7105 5.62283 15.5833 9.16667 15.5833C10.6709 15.5857 12.1278 15.0572 13.2807 14.091L18.2719 19.0822C18.3251 19.1355 18.3883 19.1777 18.4578 19.2065C18.5273 19.2353 18.6018 19.2501 18.6771 19.2501C18.7523 19.2501 18.8268 19.2353 18.8964 19.2065C18.9659 19.1777 19.029 19.1355 19.0822 19.0822C19.1355 19.029 19.1777 18.9659 19.2065 18.8964C19.2353 18.8268 19.2501 18.7523 19.2501 18.6771C19.2501 18.6018 19.2353 18.5273 19.2065 18.4578C19.1777 18.3883 19.1355 18.3251 19.0822 18.2719L14.091 13.2807C15.0571 12.1277 15.5855 10.6709 15.5833 9.16667C15.5833 5.62283 12.7105 2.75 9.16667 2.75ZM3.89583 9.16667C3.89583 6.25579 6.25579 3.89583 9.16667 3.89583C12.0775 3.89583 14.4375 6.25579 14.4375 9.16667C14.4375 12.0775 12.0775 14.4375 9.16667 14.4375C6.25579 14.4375 3.89583 12.0775 3.89583 9.16667Z" fill="#586368"/>
</svg>
