<svg width="18" height="18" viewBox="0 0 18 18" fill="none" xmlns="http://www.w3.org/2000/svg">
<path d="M7.16667 0.75C3.62283 0.75 0.75 3.62283 0.75 7.16667C0.75 10.7105 3.62283 13.5833 7.16667 13.5833C8.67092 13.5857 10.1278 13.0572 11.2807 12.091L16.2719 17.0822C16.3251 17.1355 16.3883 17.1777 16.4578 17.2065C16.5273 17.2353 16.6018 17.2501 16.6771 17.2501C16.7523 17.2501 16.8268 17.2353 16.8964 17.2065C16.9659 17.1777 17.029 17.1355 17.0822 17.0822C17.1355 17.029 17.1777 16.9659 17.2065 16.8964C17.2353 16.8268 17.2501 16.7523 17.2501 16.6771C17.2501 16.6018 17.2353 16.5273 17.2065 16.4578C17.1777 16.3883 17.1355 16.3251 17.0822 16.2719L12.091 11.2807C13.0571 10.1277 13.5855 8.67089 13.5833 7.16667C13.5833 3.62283 10.7105 0.75 7.16667 0.75ZM1.89583 7.16667C1.89583 4.25579 4.25579 1.89583 7.16667 1.89583C10.0775 1.89583 12.4375 4.25579 12.4375 7.16667C12.4375 10.0775 10.0775 12.4375 7.16667 12.4375C4.25579 12.4375 1.89583 10.0775 1.89583 7.16667Z" fill="#586368"/>
</svg>
