<svg width="28" height="28" viewBox="0 0 28 28" fill="none" xmlns="http://www.w3.org/2000/svg">
<path d="M23.4001 4.54707C22.1777 3.31231 20.7216 2.3333 19.1169 1.66714C17.5122 1.00098 15.7909 0.661019 14.0534 0.667072C6.7734 0.667072 0.840065 6.6004 0.840065 13.8804C0.840065 16.2137 1.4534 18.4804 2.60007 20.4804L0.733398 27.3337L7.7334 25.4937C9.66673 26.5471 11.8401 27.1071 14.0534 27.1071C21.3334 27.1071 27.2667 21.1737 27.2667 13.8937C27.2667 10.3604 25.8934 7.0404 23.4001 4.54707ZM14.0534 24.8671C12.0801 24.8671 10.1467 24.3337 8.4534 23.3337L8.0534 23.0937L3.8934 24.1871L5.00006 20.1337L4.7334 19.7204C3.63706 17.9697 3.05492 15.9461 3.0534 13.8804C3.0534 7.82707 7.98673 2.89374 14.0401 2.89374C16.9734 2.89374 19.7334 4.04041 21.8001 6.12041C22.8234 7.13902 23.6343 8.35062 24.1859 9.68497C24.7375 11.0193 25.0188 12.4499 25.0134 13.8937C25.0401 19.9471 20.1067 24.8671 14.0534 24.8671ZM20.0801 16.6537C19.7467 16.4937 18.1201 15.6937 17.8267 15.5737C17.5201 15.4671 17.3067 15.4137 17.0801 15.7337C16.8534 16.0671 16.2267 16.8137 16.0401 17.0271C15.8534 17.2537 15.6534 17.2804 15.3201 17.1071C14.9867 16.9471 13.9201 16.5871 12.6667 15.4671C11.6801 14.5871 11.0267 13.5071 10.8267 13.1737C10.6401 12.8404 10.8001 12.6671 10.9734 12.4937C11.1201 12.3471 11.3067 12.1071 11.4667 11.9204C11.6267 11.7337 11.6934 11.5871 11.8001 11.3737C11.9067 11.1471 11.8534 10.9604 11.7734 10.8004C11.6934 10.6404 11.0267 9.01374 10.7601 8.34707C10.4934 7.70707 10.2134 7.78707 10.0134 7.77374H9.3734C9.14673 7.77374 8.80006 7.85374 8.4934 8.18707C8.20006 8.5204 7.34673 9.32041 7.34673 10.9471C7.34673 12.5737 8.5334 14.1471 8.6934 14.3604C8.8534 14.5871 11.0267 17.9204 14.3334 19.3471C15.1201 19.6937 15.7334 19.8937 16.2134 20.0404C17.0001 20.2937 17.7201 20.2537 18.2934 20.1737C18.9334 20.0804 20.2534 19.3737 20.5201 18.6004C20.8001 17.8271 20.8001 17.1737 20.7067 17.0271C20.6134 16.8804 20.4134 16.8137 20.0801 16.6537Z" fill="#586368"/>
</svg>
