<svg width="24" height="24" viewBox="0 0 24 24" fill="none" xmlns="http://www.w3.org/2000/svg">
<path d="M7 0C3.145 0 0 3.145 0 7C0 8.031 0.316 8.988 0.719 9.875C0.580385 10.575 0.507071 11.2864 0.5 12C0.5 18.34 5.66 23.5 12 23.5C12.73 23.5 13.434 23.41 14.125 23.281C15.012 23.684 15.969 24 17 24C20.855 24 24 20.855 24 17C24 15.969 23.684 15.012 23.281 14.125C23.411 13.434 23.5 12.73 23.5 12C23.5 5.66 18.34 0.5 12 0.5C11.27 0.5 10.566 0.59 9.875 0.719C8.988 0.316 8.031 0 7 0ZM7 2C7.863 2 8.668 2.21 9.375 2.594C9.58587 2.70617 9.82992 2.73916 10.063 2.687C10.7007 2.55913 11.3497 2.49647 12 2.5C17.258 2.5 21.5 6.742 21.5 12C21.5 12.668 21.441 13.309 21.312 13.938C21.2604 14.1709 21.2937 14.4145 21.406 14.625C21.789 15.332 22 16.137 22 17C22 19.773 19.773 22 17 22C16.137 22 15.332 21.79 14.625 21.406C14.4141 21.2938 14.1701 21.2608 13.937 21.313C13.2993 21.4409 12.6503 21.5035 12 21.5C10.7519 21.5018 9.51575 21.2574 8.36233 20.7806C7.2089 20.3038 6.1609 19.6041 5.27837 18.7216C4.39585 17.8391 3.69616 16.7911 3.21939 15.6377C2.74262 14.4842 2.49816 13.2481 2.5 12C2.5 11.332 2.559 10.691 2.688 10.062C2.73961 9.82912 2.70627 9.58546 2.594 9.375C2.20051 8.64546 1.99627 7.82888 2 7C2 4.227 4.227 2 7 2ZM11.844 5.156C9.371 5.156 6.719 6.203 6.719 9C6.719 10.348 7.195 11.773 9.844 12.438L13.156 13.25C14.152 13.496 14.406 14.059 14.406 14.563C14.406 15.403 13.574 16.219 12.063 16.219C9.109 16.219 9.488 13.969 7.906 13.969C7.196 13.969 6.687 14.457 6.687 15.156C6.687 16.52 8.363 18.313 12.063 18.313C15.582 18.313 17.313 16.613 17.313 14.343C17.313 12.875 16.637 11.343 13.969 10.75L11.531 10.187C10.605 9.977 9.531 9.715 9.531 8.844C9.531 7.969 10.273 7.344 11.625 7.344C14.348 7.344 14.117 9.219 15.469 9.219C16.179 9.219 16.781 8.813 16.781 8.094C16.781 6.414 14.121 5.156 11.844 5.156Z" fill="#586368"/>
</svg>
