<svg width="84" height="82" viewBox="0 0 84 82" fill="none" xmlns="http://www.w3.org/2000/svg">
<path d="M69.125 81.909H14.875C6.65 81.909 0 75.2656 0 67.0489V14.951C0 6.73418 6.65 0.0908203 14.875 0.0908203H69.125C77.35 0.0908203 84 6.73418 84 14.951V67.0489C84 75.2656 77.35 81.909 69.125 81.909Z" fill="#26C9FF"/>
<path d="M67.795 78.4121H16.205C9.205 78.4121 3.5 72.7128 3.5 65.7198V16.2792C3.5 9.28621 9.205 3.58691 16.205 3.58691H67.76C74.795 3.58691 80.465 9.28621 80.465 16.2792V65.6848C80.5 72.7128 74.795 78.4121 67.795 78.4121Z" fill="#061E26"/>
<path fill-rule="evenodd" clip-rule="evenodd" d="M20.6499 20.5799C20.6499 20.3702 20.7199 20.1953 20.9999 20.1953C23.2049 20.0904 26.3549 20.0205 29.7499 20.0205C39.1999 20.0205 43.3299 25.1953 43.3299 31.8387C43.3299 40.51 36.9599 44.2163 29.2599 44.2163C27.9649 44.2163 27.5099 44.1464 26.5999 44.1464V57.4331C26.5999 57.7128 26.4949 57.8177 26.2149 57.8177H21.0349C20.7549 57.8177 20.6499 57.7128 20.6499 57.4331V20.5799ZM26.5999 38.6918C27.3699 38.7618 27.9999 38.7618 29.3649 38.7618C33.3549 38.7618 37.1699 37.3632 37.1699 31.9436C37.1699 27.6079 34.4399 25.4051 29.8549 25.4051C28.4899 25.4051 27.1949 25.4751 26.5999 25.51V38.6918ZM57.1199 34.6359C54.4249 34.6359 53.5149 35.9995 53.5149 37.1184C53.5149 38.3422 54.1449 39.2163 57.7499 41.0695C63.1049 43.6569 64.7849 46.1394 64.7849 49.8107C64.7849 55.2653 60.6199 58.2023 54.9849 58.2023C52.0099 58.2023 49.3499 57.573 47.8799 56.7338C47.6699 56.6289 47.5999 56.4541 47.5999 56.1744V51.1394C47.5999 50.7897 47.7749 50.6848 47.9849 50.8597C50.1199 52.2583 52.7449 52.8876 54.9849 52.8876C57.6799 52.8876 58.7999 51.7688 58.7999 50.2303C58.7999 49.0065 58.0299 47.9226 54.5649 46.1044C49.6999 43.7967 47.7049 41.4191 47.7049 37.503C47.7049 33.0974 51.1349 29.4611 57.1199 29.4611C60.0599 29.4611 62.2299 29.9156 63.3499 30.4051C63.6299 30.5799 63.6999 30.8597 63.6999 31.0695V35.7548C63.6999 36.0345 63.5249 36.2093 63.2099 36.1044C61.6699 35.1953 59.3249 34.6359 57.1199 34.6359Z" fill="#D9F5FF"/>
</svg>
