<svg width="84" height="84" viewBox="0 0 84 84" fill="none" xmlns="http://www.w3.org/2000/svg">
<path d="M82.4158 38.2583L45.7406 1.58508C43.6298 -0.527059 40.2042 -0.527059 38.0907 1.58508L30.4749 9.20086L40.1359 18.8618C42.381 18.1032 44.9554 18.6121 46.745 20.4017C48.5431 22.2028 49.0485 24.7993 48.2715 27.0515L57.582 36.3624C59.8346 35.5864 62.4337 36.0884 64.2328 37.8905C66.7472 40.4039 66.7472 44.4776 64.2328 46.9927C61.7177 49.5081 57.644 49.5081 55.1276 46.9927C53.2363 45.0994 52.7691 42.3218 53.7265 39.9918L45.0437 31.3089L45.0427 54.1586C45.6721 54.4698 46.247 54.8809 46.745 55.3759C49.2594 57.8894 49.2594 61.9634 46.745 64.4804C44.2299 66.9945 40.1543 66.9945 37.6428 64.4804C35.1284 61.9634 35.1284 57.8897 37.6428 55.3763C38.2454 54.7734 38.9615 54.2959 39.7497 53.9715V30.909C38.9603 30.5867 38.2438 30.109 37.6428 29.5043C35.7377 27.6018 35.2797 24.8065 36.2558 22.4673L26.7323 12.9428L1.58484 38.0887C-0.528281 40.2028 -0.528281 43.6287 1.58484 45.7412L38.2607 82.4151C40.3722 84.5275 43.7971 84.5275 45.9112 82.4151L82.4155 45.9115C84.5279 43.7984 84.5283 40.3704 82.4158 38.2583Z" fill="#DE4C36"/>
</svg>
