<svg width="56" height="84" viewBox="0 0 56 84" fill="none" xmlns="http://www.w3.org/2000/svg">
<g clip-path="url(#clip0_657_22478)">
<path d="M27.9736 42.016C27.9736 34.3058 34.2243 28.0234 41.9662 28.0234C49.6763 28.0234 55.9587 34.2741 55.9587 42.016C55.9587 49.7261 49.7081 56.0085 41.9662 56.0085C34.256 56.0085 27.9736 49.7261 27.9736 42.016Z" fill="#1ABCFE"/>
<path d="M0.0205078 69.9691C0.0205078 62.2589 6.27114 55.9766 14.013 55.9766H28.0056V69.9691C28.0056 77.6793 21.7549 83.9616 14.013 83.9616C6.27114 83.9616 0.0205078 77.711 0.0205078 69.9691Z" fill="#0ACF83"/>
<path d="M27.9736 0.069815V28.0231H41.9662C49.6763 28.0231 55.9587 21.7725 55.9587 14.0306C55.9587 6.32044 49.7081 0.0380859 41.9662 0.0380859H27.9736V0.069815Z" fill="#FF7262"/>
<path d="M0.0205078 14.0628C0.0205078 21.773 6.27114 28.0554 14.013 28.0554H28.0056V0.0703125H14.013C6.27114 0.0703125 0.0205078 6.32094 0.0205078 14.0628Z" fill="#F24E1E"/>
<path d="M0.0205078 42.016C0.0205078 49.7261 6.27114 56.0085 14.013 56.0085H28.0056V28.0234H14.013C6.27114 28.0234 0.0205078 34.3058 0.0205078 42.016Z" fill="#A259FF"/>
</g>
<defs>
<clipPath id="clip0_657_22478">
<rect width="55.9594" height="84" fill="white" transform="translate(0.0205078)"/>
</clipPath>
</defs>
</svg>
