<svg width="84" height="84" viewBox="0 0 84 84" fill="none" xmlns="http://www.w3.org/2000/svg">
<path d="M0 0H84V84H0V0Z" fill="#F0DB4F"/>
<path d="M77.1251 63.9662C76.5103 60.1335 74.011 56.9156 66.6091 53.9133C64.038 52.7316 61.1715 51.8853 60.3171 49.9369C60.0137 48.803 59.9738 48.1643 60.1654 47.4776C60.7163 45.2498 63.3753 44.5551 65.4833 45.1939C66.8407 45.649 68.1262 46.6951 68.9008 48.3639C72.5258 46.0164 72.5179 46.0323 75.049 44.4195C74.1228 42.9822 73.6278 42.3194 73.0209 41.7046C70.8411 39.2693 67.8707 38.0157 63.1198 38.1115C62.2973 38.2153 61.467 38.327 60.6445 38.4309C58.2731 39.0297 56.0133 40.2754 54.6878 41.9442C50.7114 46.4556 51.8452 54.3525 56.684 57.6024C61.451 61.1796 68.4536 61.994 69.3479 65.3396C70.2182 69.4358 66.3377 70.7612 62.481 70.2902C59.6384 69.6993 58.0575 68.2541 56.3487 65.6271C53.2027 67.4476 53.2027 67.4476 49.9689 69.3081C50.7354 70.9849 51.5418 71.7434 52.8275 73.1967C58.9119 79.3689 74.1388 79.0655 76.8697 69.7233C76.9814 69.4038 77.716 67.2639 77.1251 63.9662ZM45.665 38.6065H37.808C37.808 45.3935 37.7761 52.1327 37.7761 58.9198C37.7761 63.2395 37.9997 67.2 37.297 68.4137C36.1472 70.8011 33.1689 70.5057 31.8115 70.0425C30.4301 69.3638 29.7275 68.3976 28.913 67.0323C28.6894 66.6411 28.5218 66.3376 28.4658 66.3137C26.3339 67.6152 24.2099 68.9246 22.0779 70.2262C23.14 72.4061 24.7049 74.2985 26.7091 75.5281C29.7034 77.3246 33.7278 77.8756 37.9358 76.9094C40.6746 76.1109 43.038 74.4582 44.2757 71.943C46.0643 68.6452 45.681 64.6529 45.665 60.2373C45.7049 53.035 45.665 45.8327 45.665 38.6065Z" fill="#323330"/>
</svg>
